<svg width="128" height="127" viewBox="0 0 128 127" fill="none" xmlns="http://www.w3.org/2000/svg">
<path opacity="0.07" d="M63.676 126.72C58.8035 126.72 53.9373 124.87 50.2178 121.176L45.5923 116.55C43.7992 114.763 41.3978 113.775 38.8506 113.768H32.3433C21.8252 113.768 13.2649 105.208 13.2649 94.6893V88.1755C13.2586 85.6346 12.2701 83.2331 10.477 81.4272L5.92757 76.884C-1.52383 69.4767 -1.55551 57.3678 5.85787 49.9098L10.4833 45.2778C12.2701 43.4846 13.2586 41.0831 13.2649 38.5359V32.0347C13.2649 21.5099 21.8252 12.9494 32.3433 12.9494H38.8569C41.3978 12.9494 43.7928 11.9609 45.5987 10.155L50.1544 5.61178C57.5616 -1.83987 69.6638 -1.87789 77.1279 5.54207L81.7533 10.1677C83.5528 11.9609 85.9479 12.9494 88.4887 12.9494H95.0023C105.52 12.9494 114.081 21.5099 114.081 32.0347V38.5422C114.087 41.0831 115.076 43.4846 116.869 45.2905L121.418 49.8401C125.023 53.4265 127.019 58.2042 127.038 63.305C127.051 68.3741 125.099 73.1455 121.545 76.7509C121.481 76.8143 121.424 76.884 121.361 76.941L116.862 81.4399C115.076 83.2331 114.087 85.6346 114.081 88.1818V94.6893C114.081 105.208 105.52 113.768 95.0023 113.768H88.4887C85.9479 113.775 83.5465 114.763 81.747 116.556L77.1912 121.106C73.4782 124.844 68.5739 126.72 63.676 126.72Z" fill="#0E4944"/>
<path d="M63.6767 109.437C60.1331 109.437 56.5942 108.091 53.8892 105.405L50.5253 102.041C49.2213 100.742 47.4748 100.023 45.6224 100.018H40.89C33.2407 100.018 27.0153 93.7928 27.0153 86.1435V81.4065C27.0107 79.5587 26.2919 77.8122 24.9878 76.4989L21.6793 73.195C16.2602 67.8083 16.2372 59.0024 21.6286 53.5787L24.9924 50.2103C26.2919 48.9062 27.0107 47.1598 27.0153 45.3074V40.5796C27.0153 32.9257 33.2407 26.7003 40.89 26.7003H45.627C47.4748 26.7003 49.2167 25.9814 50.5299 24.6682L53.8431 21.3642C59.2299 15.9452 68.0312 15.9176 73.4594 21.3135L76.8233 24.6774C78.132 25.9814 79.8738 26.7003 81.7216 26.7003H86.4586C94.1079 26.7003 100.333 32.9257 100.333 40.5796V45.312C100.338 47.1598 101.057 48.9062 102.361 50.2195L105.669 53.5281C108.291 56.1362 109.743 59.6106 109.757 63.3201C109.766 67.0065 108.347 70.4763 105.762 73.0982C105.715 73.1443 105.674 73.195 105.628 73.2365L102.356 76.5082C101.057 77.8122 100.338 79.5587 100.333 81.4111V86.1435C100.333 93.7928 94.1079 100.018 86.4586 100.018H81.7216C79.8738 100.023 78.1273 100.742 76.8187 102.046L73.5055 105.354C70.8052 108.073 67.2386 109.437 63.6767 109.437Z" fill="#039563"/>
<path d="M59.057 75.8432C58.1843 75.8432 57.3115 75.5166 56.6452 74.8596L47.3993 65.7424C46.0668 64.4284 46.0668 62.2999 47.3993 60.9897C48.7318 59.6758 50.8865 59.6719 52.219 60.9859L59.057 67.7287L75.1408 51.8687C76.4733 50.5547 78.628 50.5547 79.9605 51.8687C81.293 53.1827 81.293 55.3112 79.9605 56.6252L61.4688 74.8596C60.8025 75.5166 59.9298 75.8432 59.057 75.8432Z" fill="white"/>
</svg>
