<svg width="123" height="44" viewBox="0 0 123 44" fill="none" xmlns="http://www.w3.org/2000/svg">
<path d="M23.8056 5.79097V18.5084C23.8056 21.3092 23.0742 23.391 21.6115 24.7535C20.1488 26.1161 18.0117 26.7974 15.2003 26.7974C13.7186 26.7974 12.3129 26.6176 10.9831 26.2581C9.65341 25.8985 8.55163 25.3781 7.6778 24.6968L9.44445 21.5174C10.0903 22.0473 10.9072 22.4637 11.895 22.7665C12.8828 23.0882 13.8706 23.249 14.8584 23.249C16.3971 23.249 17.5273 22.8989 18.2492 22.1987C18.99 21.5174 19.3605 20.4766 19.3605 19.0761V18.4232C18.2017 19.6912 16.587 20.3252 14.5164 20.3252C13.1107 20.3252 11.819 20.0224 10.6412 19.4168C9.48244 18.7923 8.56113 17.9217 7.87726 16.8052C7.1934 15.6886 6.85147 14.4017 6.85147 12.9445C6.85147 11.4873 7.1934 10.2004 7.87726 9.08387C8.56113 7.96731 9.48244 7.10624 10.6412 6.50065C11.819 5.87613 13.1107 5.56387 14.5164 5.56387C16.739 5.56387 18.4297 6.29247 19.5884 7.74968V5.79097H23.8056ZM15.3998 16.6916C16.5775 16.6916 17.5368 16.351 18.2777 15.6697C19.0375 14.9695 19.4175 14.0611 19.4175 12.9445C19.4175 11.828 19.0375 10.929 18.2777 10.2477C17.5368 9.54753 16.5775 9.19742 15.3998 9.19742C14.222 9.19742 13.2532 9.54753 12.4933 10.2477C11.7335 10.929 11.3536 11.828 11.3536 12.9445C11.3536 14.0611 11.7335 14.9695 12.4933 15.6697C13.2532 16.351 14.222 16.6916 15.3998 16.6916Z" fill="white"/>
<path d="M41.5346 13.4839C41.5346 13.5406 41.5061 13.9381 41.4491 14.6761H29.8519C30.0609 15.6224 30.5548 16.3699 31.3336 16.9187C32.1125 17.4675 33.0813 17.7419 34.2401 17.7419C35.0379 17.7419 35.7408 17.6284 36.3486 17.4013C36.9755 17.1553 37.5549 16.7768 38.0868 16.2658L40.4518 18.8206C39.0081 20.4671 36.8995 21.2903 34.1261 21.2903C32.3974 21.2903 30.8682 20.9591 29.5385 20.2968C28.2088 19.6155 27.183 18.6787 26.4611 17.4865C25.7393 16.2942 25.3783 14.9411 25.3783 13.4271C25.3783 11.932 25.7298 10.5884 26.4326 9.39613C27.1545 8.18495 28.1328 7.24817 29.3675 6.58581C30.6213 5.90452 32.0175 5.56387 33.5562 5.56387C35.0569 5.56387 36.4151 5.88559 37.6309 6.52903C38.8466 7.17247 39.7964 8.09978 40.4803 9.31097C41.1832 10.5032 41.5346 11.8942 41.5346 13.4839ZM33.5847 8.91355C32.5779 8.91355 31.7326 9.19742 31.0487 9.76516C30.3648 10.3329 29.9469 11.1088 29.7949 12.0929H37.3459C37.194 11.1277 36.776 10.3613 36.0922 9.79355C35.4083 9.20688 34.5725 8.91355 33.5847 8.91355Z" fill="white"/>
<path d="M47.3149 7.80645C47.8468 7.06839 48.5592 6.51011 49.452 6.13161C50.3638 5.75312 51.4086 5.56387 52.5864 5.56387V9.65161C52.0925 9.61376 51.76 9.59484 51.5891 9.59484C50.3163 9.59484 49.319 9.95441 48.5972 10.6735C47.8753 11.3738 47.5144 12.4335 47.5144 13.8529V21.0632H43.0693V5.79097H47.3149V7.80645Z" fill="white"/>
<path d="M62.8659 5.56387C64.2906 5.56387 65.5824 5.89505 66.7411 6.55742C67.9189 7.20086 68.8402 8.11871 69.5051 9.31097C70.17 10.4843 70.5024 11.8563 70.5024 13.4271C70.5024 14.9978 70.17 16.3794 69.5051 17.5716C68.8402 18.7449 67.9189 19.6628 66.7411 20.3252C65.5824 20.9686 64.2906 21.2903 62.8659 21.2903C60.7573 21.2903 59.1522 20.628 58.0504 19.3032V21.0632H53.8047V0H58.2498V7.40903C59.3706 6.17893 60.9093 5.56387 62.8659 5.56387ZM62.0966 17.6568C63.2363 17.6568 64.1672 17.2783 64.889 16.5213C65.6299 15.7454 66.0003 14.714 66.0003 13.4271C66.0003 12.1402 65.6299 11.1183 64.889 10.3613C64.1672 9.58538 63.2363 9.19742 62.0966 9.19742C60.9568 9.19742 60.0165 9.58538 59.2756 10.3613C58.5538 11.1183 58.1929 12.1402 58.1929 13.4271C58.1929 14.714 58.5538 15.7454 59.2756 16.5213C60.0165 17.2783 60.9568 17.6568 62.0966 17.6568Z" fill="white"/>
<path d="M97.2821 5.56387C99.1818 5.56387 100.711 6.13161 101.87 7.2671C103.047 8.40258 103.636 10.0869 103.636 12.32V21.0632H99.1913V13.0013C99.1913 11.7901 98.9253 10.8912 98.3934 10.3045C97.8615 9.69893 97.0922 9.39613 96.0854 9.39613C94.9646 9.39613 94.0718 9.74624 93.4069 10.4465C92.742 11.1277 92.4096 12.1497 92.4096 13.5123V21.0632H87.9645V5.79097H92.2101V7.57935C92.799 6.93591 93.5304 6.44387 94.4042 6.10323C95.278 5.74366 96.2373 5.56387 97.2821 5.56387Z" fill="white"/>
<path d="M122.222 5.79097V18.5084C122.222 21.3092 121.491 23.391 120.028 24.7535C118.565 26.1161 116.428 26.7974 113.617 26.7974C112.135 26.7974 110.73 26.6176 109.4 26.2581C108.07 25.8985 106.968 25.3781 106.094 24.6968L107.861 21.5174C108.507 22.0473 109.324 22.4637 110.312 22.7665C111.299 23.0882 112.287 23.249 113.275 23.249C114.814 23.249 115.944 22.8989 116.666 22.1987C117.407 21.5174 117.777 20.4766 117.777 19.0761V18.4232C116.618 19.6912 115.004 20.3252 112.933 20.3252C111.527 20.3252 110.236 20.0224 109.058 19.4168C107.899 18.7923 106.978 17.9217 106.294 16.8052C105.61 15.6886 105.268 14.4017 105.268 12.9445C105.268 11.4873 105.61 10.2004 106.294 9.08387C106.978 7.96731 107.899 7.10624 109.058 6.50065C110.236 5.87613 111.527 5.56387 112.933 5.56387C115.156 5.56387 116.846 6.29247 118.005 7.74968V5.79097H122.222ZM113.816 16.6916C114.994 16.6916 115.953 16.351 116.694 15.6697C117.454 14.9695 117.834 14.0611 117.834 12.9445C117.834 11.828 117.454 10.929 116.694 10.2477C115.953 9.54753 114.994 9.19742 113.816 9.19742C112.639 9.19742 111.67 9.54753 110.91 10.2477C110.15 10.929 109.77 11.828 109.77 12.9445C109.77 14.0611 110.15 14.9695 110.91 15.6697C111.67 16.351 112.639 16.6916 113.816 16.6916Z" fill="white"/>
<path d="M6.63917 44C5.36643 44 4.12218 43.8486 2.90642 43.5458C1.69066 43.2241 0.721856 42.8267 0 42.3535L1.4817 39.1742C2.16557 39.6095 2.9919 39.969 3.96071 40.2529C4.92951 40.5178 5.87932 40.6503 6.81014 40.6503C8.69076 40.6503 9.63107 40.1867 9.63107 39.2594C9.63107 38.8241 9.37463 38.5118 8.86173 38.3226C8.34883 38.1333 7.56049 37.9725 6.4967 37.84C5.24295 37.6508 4.20766 37.4331 3.39082 37.1871C2.57399 36.9411 1.86163 36.5058 1.25375 35.8813C0.664867 35.2568 0.370426 34.3673 0.370426 33.2129C0.370426 32.2477 0.645871 31.3961 1.19676 30.6581C1.76665 29.9011 2.58348 29.3144 3.64727 28.8981C4.73005 28.4817 6.0028 28.2735 7.46551 28.2735C8.54829 28.2735 9.62157 28.3966 10.6854 28.6426C11.7681 28.8697 12.661 29.1914 13.3638 29.6077L11.8821 32.7587C10.5334 32.0017 9.06119 31.6232 7.46551 31.6232C6.5157 31.6232 5.80334 31.7557 5.32843 32.0206C4.85353 32.2856 4.61608 32.6262 4.61608 33.0426C4.61608 33.5157 4.87253 33.8469 5.38542 34.0361C5.89832 34.2254 6.71516 34.4052 7.83593 34.5755C9.08968 34.7837 10.1155 35.0108 10.9133 35.2568C11.7112 35.4839 12.4045 35.9097 12.9934 36.5342C13.5823 37.1587 13.8767 38.0292 13.8767 39.1458C13.8767 40.092 13.5918 40.9342 13.0219 41.6723C12.452 42.4103 11.6162 42.9875 10.5144 43.4039C9.43161 43.8013 8.13987 44 6.63917 44Z" fill="#FDD652"/>
<path d="M30.2111 36.1935C30.2111 36.2503 30.1826 36.6477 30.1256 37.3858H18.5284C18.7374 38.332 19.2313 39.0796 20.0101 39.6284C20.789 40.1772 21.7578 40.4516 22.9165 40.4516C23.7144 40.4516 24.4172 40.3381 25.0251 40.111C25.652 39.8649 26.2314 39.4865 26.7633 38.9755L29.1283 41.5303C27.6846 43.1768 25.576 44 22.8026 44C21.0739 44 19.5447 43.6688 18.215 43.0064C16.8852 42.3252 15.8595 41.3884 15.1376 40.1961C14.4157 39.0039 14.0548 37.6508 14.0548 36.1368C14.0548 34.6417 14.4062 33.2981 15.1091 32.1058C15.831 30.8946 16.8093 29.9578 18.044 29.2955C19.2978 28.6142 20.694 28.2735 22.2327 28.2735C23.7334 28.2735 25.0916 28.5953 26.3074 29.2387C27.5231 29.8822 28.4729 30.8095 29.1568 32.0206C29.8597 33.2129 30.2111 34.6039 30.2111 36.1935ZM22.2612 31.6232C21.2544 31.6232 20.409 31.9071 19.7252 32.4748C19.0413 33.0426 18.6234 33.8185 18.4714 34.8026H26.0224C25.8704 33.8374 25.4525 33.071 24.7687 32.5032C24.0848 31.9166 23.249 31.6232 22.2612 31.6232Z" fill="#FDD652"/>
<path d="M47.3606 22.7097V43.7729H43.115V42.0129C42.0132 43.3376 40.4175 44 38.328 44C36.8842 44 35.5735 43.6783 34.3957 43.0348C33.237 42.3914 32.3252 41.4735 31.6603 40.2813C30.9954 39.089 30.663 37.7075 30.663 36.1368C30.663 34.566 30.9954 33.1845 31.6603 31.9923C32.3252 30.8 33.237 29.8822 34.3957 29.2387C35.5735 28.5953 36.8842 28.2735 38.328 28.2735C40.2846 28.2735 41.8138 28.8886 42.9155 30.1187V22.7097H47.3606ZM39.0973 40.3664C40.2181 40.3664 41.1489 39.988 41.8897 39.231C42.6306 38.4551 43.001 37.4237 43.001 36.1368C43.001 34.8499 42.6306 33.828 41.8897 33.071C41.1489 32.2951 40.2181 31.9071 39.0973 31.9071C37.9575 31.9071 37.0172 32.2951 36.2764 33.071C35.5355 33.828 35.1651 34.8499 35.1651 36.1368C35.1651 37.4237 35.5355 38.4551 36.2764 39.231C37.0172 39.988 37.9575 40.3664 39.0973 40.3664Z" fill="#FDD652"/>
<path d="M65.0665 36.1935C65.0665 36.2503 65.038 36.6477 64.981 37.3858H53.3838C53.5928 38.332 54.0867 39.0796 54.8655 39.6284C55.6444 40.1772 56.6132 40.4516 57.772 40.4516C58.5698 40.4516 59.2727 40.3381 59.8805 40.111C60.5074 39.8649 61.0868 39.4865 61.6187 38.9755L63.9837 41.5303C62.54 43.1768 60.4314 44 57.658 44C55.9293 44 54.4001 43.6688 53.0704 43.0064C51.7407 42.3252 50.7149 41.3884 49.993 40.1961C49.2712 39.0039 48.9102 37.6508 48.9102 36.1368C48.9102 34.6417 49.2617 33.2981 49.9645 32.1058C50.6864 30.8946 51.6647 29.9578 52.8994 29.2955C54.1532 28.6142 55.5494 28.2735 57.0881 28.2735C58.5888 28.2735 59.947 28.5953 61.1628 29.2387C62.3786 29.8822 63.3284 30.8095 64.0122 32.0206C64.7151 33.2129 65.0665 34.6039 65.0665 36.1935ZM57.1166 31.6232C56.1098 31.6232 55.2645 31.9071 54.5806 32.4748C53.8967 33.0426 53.4788 33.8185 53.3269 34.8026H60.8778C60.7259 33.8374 60.308 33.071 59.6241 32.5032C58.9402 31.9166 58.1044 31.6232 57.1166 31.6232Z" fill="#FDD652"/>
<path d="M73.1834 37.7832L71.0463 39.8839V43.7729H66.6012V22.7097H71.0463V34.6323L77.543 28.5006H82.8429L76.4602 34.9729L83.4128 43.7729H78.0274L73.1834 37.7832Z" fill="#FDD652"/>
<path d="M89.8922 28.2735C92.2667 28.2735 94.0903 28.8413 95.3631 29.9768C96.6358 31.0933 97.2722 32.7871 97.2722 35.0581V43.7729H93.112V41.871C92.2762 43.2903 90.7185 44 88.439 44C87.2612 44 86.2354 43.8013 85.3616 43.4039C84.5067 43.0065 83.8514 42.4576 83.3955 41.7574C82.9396 41.0572 82.7116 40.2624 82.7116 39.3729C82.7116 37.9535 83.2435 36.837 84.3073 36.0232C85.3901 35.2095 87.0522 34.8026 89.2938 34.8026H92.8271C92.8271 33.8374 92.5326 33.0994 91.9438 32.5884C91.3549 32.0585 90.4716 31.7935 89.2938 31.7935C88.4769 31.7935 87.6696 31.926 86.8718 32.191C86.0929 32.437 85.4281 32.7776 84.8772 33.2129L83.2815 30.1187C84.1173 29.532 85.1146 29.0778 86.2734 28.7561C87.4512 28.4344 88.6574 28.2735 89.8922 28.2735ZM89.5502 41.0194C90.3101 41.0194 90.9845 40.849 91.5733 40.5084C92.1622 40.1488 92.5801 39.6284 92.8271 38.9471V37.3858H89.7782C87.9545 37.3858 87.0427 37.9819 87.0427 39.1742C87.0427 39.7419 87.2612 40.1961 87.6981 40.5368C88.154 40.8585 88.7714 41.0194 89.5502 41.0194Z" fill="#FDD652"/>
<path d="M109.188 28.2735C111.088 28.2735 112.617 28.8413 113.776 29.9768C114.953 31.1123 115.542 32.7966 115.542 35.0297V43.7729H111.097V35.711C111.097 34.4998 110.831 33.6009 110.299 33.0142C109.768 32.4086 108.998 32.1058 107.991 32.1058C106.871 32.1058 105.978 32.4559 105.313 33.1561C104.648 33.8374 104.316 34.8594 104.316 36.2219V43.7729H99.8705V22.7097H104.316V30.0903C104.905 29.5037 105.617 29.0589 106.453 28.7561C107.289 28.4344 108.2 28.2735 109.188 28.2735Z" fill="#FDD652"/>
<path d="M80.0403 5.7037H76.383L69.2593 21.1852H73.0544L74.4643 17.864H74.4749L75.8106 14.7823L78.1851 9.21229L80.5279 14.699L81.8848 17.864L82.0862 18.3429L82.0968 18.3533L83.3053 21.1852H87.1852L80.0403 5.7037Z" fill="#FDD652"/>
</svg>
