<svg width="50" height="36" viewBox="0 0 50 36" fill="none" xmlns="http://www.w3.org/2000/svg">
<rect width="50" height="36" rx="4" fill="#4C3494"/>
<path fill-rule="evenodd" clip-rule="evenodd" d="M40.8465 13.6513C39.6719 12.6056 38.0567 12.117 36.5031 12.2664C36.1149 12.302 35.7298 12.3717 35.356 12.4831C33.9869 12.8802 32.7861 13.8258 32.0692 15.0657C31.1053 16.7009 30.9899 18.7997 31.7339 20.5433C32.2864 21.8568 33.3425 22.9469 34.6374 23.5251C36.1079 24.1816 37.8481 24.2014 39.3318 23.5753C40.088 23.2545 40.7739 22.7645 41.3238 22.1507C42.3279 21.0451 42.8621 19.5364 42.828 18.0427C42.8193 16.3859 42.098 14.7344 40.8465 13.6513ZM34.1198 15.7253C34.6719 14.8956 35.5825 14.3171 36.5682 14.1937C37.3498 14.0866 38.1694 14.2435 38.8466 14.6564C39.497 15.0454 40.0054 15.6557 40.3092 16.3515C40.9094 17.7395 40.7748 19.4597 39.8686 20.6838C39.4389 21.2637 38.8356 21.7158 38.1506 21.9388C37.2904 22.2212 36.3217 22.1604 35.5068 21.7625C34.8642 21.451 34.327 20.9346 33.9707 20.3133C33.1742 18.9182 33.2201 17.0614 34.1198 15.7253ZM15.6021 12.8775C14.5421 12.3236 13.3085 12.1386 12.129 12.2963C10.9921 12.4439 9.8992 12.941 9.05115 13.7209C8.18124 14.5052 7.57056 15.5694 7.30653 16.7137C6.98785 18.0722 7.13473 19.5435 7.74454 20.7997C8.30452 21.9731 9.27759 22.9412 10.4504 23.488C11.6119 24.0327 12.9509 24.1631 14.2011 23.8983C15.4023 23.6462 16.5118 22.9817 17.3113 22.0441C18.0737 21.1584 18.5484 20.0335 18.6818 18.8706C18.8107 17.7862 18.6512 16.6665 18.2127 15.6667C17.693 14.4731 16.757 13.4662 15.6021 12.8775ZM10.8867 14.8198C11.3544 14.4792 11.9092 14.2651 12.4805 14.191C13.1646 14.102 13.8767 14.2113 14.4953 14.5228C15.2236 14.8811 15.808 15.5081 16.152 16.2449C16.5428 17.0662 16.6491 18.0131 16.5018 18.9085C16.3658 19.7254 15.9955 20.5137 15.4037 21.0954C14.8948 21.6131 14.2181 21.9581 13.5043 22.0696C12.63 22.2084 11.702 22.0176 10.9693 21.5118C10.2126 21.0029 9.68151 20.1908 9.45201 19.309C9.22557 18.4383 9.25398 17.4971 9.54993 16.6467C9.80172 15.9223 10.2642 15.2666 10.8867 14.8198ZM19.2093 12.5594L19.209 12.5594C19.2087 12.98 19.2088 13.4009 19.2089 13.8218C19.2089 14.0322 19.209 14.2427 19.209 14.4532C19.4922 14.4539 19.7752 14.4538 20.0583 14.4537C20.1527 14.4537 20.2472 14.4537 20.3416 14.4537C21.0421 16.078 21.7417 17.7028 22.4413 19.3275C22.9493 20.5072 23.4572 21.6869 23.9655 22.8663C24.202 23.4136 24.699 23.8406 25.2773 23.9758C25.4877 24.0313 25.7048 24.0291 25.921 24.0268C25.9883 24.0261 26.0554 24.0255 26.1223 24.0265C26.7859 22.4509 27.4517 20.8761 28.1175 19.3014C28.9113 17.4241 29.705 15.5468 30.495 13.668C30.5152 13.4394 30.5121 13.2086 30.509 12.9778C30.5071 12.838 30.5053 12.6982 30.5086 12.5589H26.8375V12.5594C26.837 13.1911 26.8366 13.8224 26.8375 14.4537C26.9973 14.4539 27.1571 14.4538 27.3169 14.4538C27.53 14.4537 27.7431 14.4536 27.9561 14.4541C27.6638 15.1759 27.3722 15.8981 27.0806 16.6202C26.5153 18.0202 25.95 19.4201 25.3796 20.8178C24.9352 19.7571 24.4909 18.6963 24.0466 17.6356C23.6024 16.5751 23.1582 15.5146 22.7139 14.4541C22.9019 14.4535 23.09 14.4536 23.2781 14.4537C23.4662 14.4538 23.6544 14.4539 23.8426 14.4532V12.5594C22.2983 12.5585 20.754 12.5589 19.2093 12.5594Z" fill="white"/>
</svg>
