<svg width="1244" height="915" viewBox="0 0 1244 915" fill="none" xmlns="http://www.w3.org/2000/svg">
<path opacity="0.15" d="M1202.41 325.13C1204.68 320.575 1207.17 316.012 1209.44 311.301C1213.96 301.878 1218.15 292.093 1221.94 281.945C1223.43 277.234 1224.74 272.523 1225.9 267.811C1235.17 230.146 1234.93 192.579 1239.7 160.423C1240.27 156.717 1240.78 153.06 1241.22 149.452C1246.9 103.435 1242.93 65.5794 1237.83 39.7908C1235.41 26.8759 1232.12 16.9014 1230.13 10.1886C1227.96 3.47582 1226.35 -4.42384e-06 1226.35 -4.42384e-06C1226.35 -4.42384e-06 1225.06 3.54995 1222.67 10.2133C1220.47 16.819 1216.44 26.3817 1211.84 38.2588C1202.33 61.9883 1188.38 95.091 1168.84 131.464C1149.29 167.82 1123.93 207.322 1091.55 242.739C1083.33 251.528 1074.87 260.16 1065.99 268.495C1057.01 276.756 1047.49 284.548 1037.89 292.282C1018.23 307.273 997.185 321.102 974.398 332.666C949.256 345.894 915.426 365.126 890.358 385.207C888.266 386.772 886.199 388.362 884.148 389.96L808.598 248.381L666.811 258.924L551.995 572.828C529.217 556.033 500.929 544.148 476.61 545.285C463.499 545.894 450.669 550.177 438.604 555.201C432.238 557.853 426.004 560.819 419.778 563.792C419.753 563.817 419.729 563.85 419.704 563.874C417.028 565.167 414.615 566.411 412.49 567.548L431.736 539.313L397.041 547.846L366.183 583.881L379.895 555.078L356.49 556.816L338.924 594.728C337.821 596.664 336.981 598.435 336.618 599.753C334.733 606.548 333.588 613.582 333.283 620.632C333.028 626.431 332.995 632.468 334.51 638.102C335.943 643.431 337.903 648.596 340.053 653.669C340.975 655.86 341.008 656.181 342.218 659.023C343.009 658.825 375.703 659.221 384.054 649.049C384.457 648.563 388.369 643.349 389.102 641.809C390.016 639.873 396.876 630.261 400.244 627.815C400.961 626.711 433.58 602.891 433.58 602.891L435.425 618.26C435.425 618.26 419.737 648.974 416.105 651.239L415.973 651.462L415.908 651.371C415.553 651.585 415.315 651.865 414.911 652.055C401.306 658.521 392.141 648.497 392.141 648.497C387.941 655.383 383.304 661.865 378.272 663.792C369.444 667.185 352.974 663.43 342.433 665.934C337.45 667.581 332.822 670.225 328.836 674.063C317.142 685.347 312.077 702.512 312.357 718.524C312.415 721.695 312.637 724.874 313.049 728.021C314.737 734.009 316.837 739.898 319.423 745.548C323.384 754.221 327.436 766.691 327.675 766.617C326.102 760.118 332.493 740.977 332.501 740.952C333.489 738.522 339.698 730.772 342.507 727.337C342.515 727.329 342.515 727.329 342.523 727.32C359.043 709.983 381.435 704.835 403.999 701.672C412.292 700.511 420.585 698.311 428.821 696.623C431.481 696.079 434.33 695.28 437.056 695.791C437.072 695.799 437.097 695.799 437.122 695.799C437.262 695.824 437.402 695.849 437.542 695.873C436.348 695.643 433.984 696.763 432.839 697.051C428.326 698.188 423.822 699.349 419.325 700.535C406.248 703.97 393.162 707.512 380.232 711.506C371.528 714.191 364.47 719.52 360.138 721.58C343.923 729.289 339.435 744.255 339.336 744.436C341.23 744.329 363.391 730.656 363.391 730.656C363.391 730.656 387.167 728.787 388.262 728.811C388.978 730.566 392.816 743.316 393.434 749.79C394.249 758.208 392.964 766.378 394.619 774.961C395.278 778.371 396.25 781.772 397.362 785.166C382.085 789.424 366.043 792.274 349.136 793.534C311.443 796.335 277.316 790.585 246.788 776.287C216.235 761.988 191.686 740.705 173.116 712.437C154.529 684.169 143.971 651.248 141.402 613.64C138.799 575.463 144.762 541.01 159.321 510.287C173.865 479.557 195.441 454.995 224.034 436.587C252.627 418.194 286.062 407.561 324.331 404.711C384.861 400.214 438.118 419.224 484.079 461.725L567.494 371.814C536.035 339.857 498.277 316.506 454.218 301.754C410.168 287.019 361.851 281.583 309.31 285.495C246.475 290.166 190.854 307.816 142.431 338.448C93.9994 369.08 57.2865 409.307 32.2678 459.122C7.21613 508.945 -3.23442 563.94 0.866746 624.092C4.97614 684.26 22.789 737.13 54.3136 782.753C85.8464 828.367 127.369 862.771 178.897 885.981C230.417 909.184 287.306 918.474 349.564 913.846C377.704 911.753 405.531 906.853 433.053 899.184L579.724 888.279L625.602 751.388L625.75 751.379L669.29 624.1L746.43 394.481L792.366 486.681C784.115 498.328 776.629 510.016 769.868 521.571C756.197 545.153 745.598 568.273 737.462 589.96C727.357 617.124 721.222 642.015 717.615 663.273C716.874 667.523 716.256 671.625 715.721 675.578C714.765 696.359 715.589 708.442 713.127 727.897C713.431 734.939 714.065 738.695 714.065 738.695C714.065 738.695 716.272 735.541 720.415 729.635C725.998 723.606 731.269 716.852 736.383 709.595C738.944 705.971 741.481 702.224 743.984 698.377C749.815 690.899 755.308 682.835 760.693 674.499C762.489 671.724 764.284 668.907 766.088 666.09C776.736 643.192 799.309 616.761 821.371 598.624C827.811 593.328 834.267 588.395 840.74 583.757L852.475 607.314L857.878 618.153C766.466 683.222 716.437 773.412 716.437 773.412C716.437 773.412 768.344 726.555 891.099 684.787L903.386 709.431C901.936 709.563 900.495 709.694 899.029 709.826C759.195 722.412 711.611 840.293 711.611 840.293C711.611 840.293 737.132 795.61 883.819 791.228C904.572 790.61 923.422 788.007 940.494 783.996L977.627 858.694L1128.3 847.492L1058.24 716.209C1074.95 697.875 1082.17 683.42 1082.17 683.42C1082.17 683.42 1071.86 686.706 1045.07 691.541L1021.78 647.887C1193.07 588.189 1207.89 373.421 1207.89 373.421C1207.89 373.421 1150.04 521.02 981.184 560.761C979.438 561.173 977.701 561.601 975.971 562.046L955.976 524.57C1046.46 488.955 1133.42 462.746 1202.41 325.13ZM430.706 772.968C430.698 772.926 430.657 772.778 430.657 772.778L430.739 772.959C430.731 772.959 430.715 772.959 430.706 772.968Z" fill="#139C6D"/>
</svg>
