<svg width="154" height="168" viewBox="0 0 154 168" fill="none" xmlns="http://www.w3.org/2000/svg">
<path d="M90.7395 164.11C90.7738 164.59 90.7109 165.072 90.5545 165.528C90.3982 165.983 90.1515 166.402 89.8294 166.76C89.5033 167.121 89.1053 167.41 88.661 167.608C88.2167 167.806 87.7359 167.909 87.2495 167.91H66.3294C65.8681 167.91 65.4114 167.819 64.9854 167.642C64.5595 167.465 64.1728 167.205 63.8475 166.878C63.5222 166.551 63.2649 166.163 63.0902 165.736C62.9155 165.309 62.8268 164.851 62.8294 164.39C62.8244 164.297 62.8244 164.203 62.8294 164.11L69.8294 90.88C69.9115 90.0109 70.3146 89.2035 70.9599 88.6155C71.6052 88.0275 72.4464 87.7011 73.3194 87.7H80.3194C81.1937 87.6966 82.0375 88.0214 82.6838 88.6103C83.3301 89.1992 83.7319 90.0092 83.8095 90.88L90.7395 164.11Z" fill="#257CC0"/>
<path d="M76.7895 94.68C74.0185 94.68 71.3097 93.8576 69.0063 92.317C66.703 90.7765 64.9086 88.5871 63.8504 86.026C62.7923 83.4649 62.518 80.6474 63.0622 77.9303C63.6065 75.2132 64.9449 72.7187 66.9078 70.7628C68.8708 68.8069 71.37 67.4775 74.089 66.9429C76.808 66.4084 79.6245 66.6928 82.1817 67.7601C84.739 68.8274 86.9221 70.6296 88.4545 72.9384C89.9868 75.2473 90.7994 77.959 90.7895 80.73C90.7763 84.4344 89.2954 87.9825 86.6714 90.5972C84.0473 93.2119 80.4939 94.68 76.7895 94.68V94.68ZM76.7895 73.75C75.4051 73.75 74.0516 74.1605 72.9005 74.9297C71.7494 75.6989 70.8522 76.7921 70.3224 78.0712C69.7926 79.3503 69.654 80.7578 69.9241 82.1156C70.1942 83.4735 70.8607 84.7208 71.8397 85.6997C72.8187 86.6787 74.0659 87.3454 75.4238 87.6155C76.7817 87.8856 78.1892 87.747 79.4682 87.2172C80.7473 86.6873 81.8406 85.7901 82.6097 84.639C83.3789 83.4878 83.7895 82.1345 83.7895 80.75C83.7895 78.8935 83.052 77.113 81.7392 75.8003C80.4265 74.4875 78.6461 73.75 76.7895 73.75Z" fill="#257CC0"/>
<path d="M94.2197 38.85C94.2197 56.85 86.0997 61.76 80.2197 62.94V31.87C80.2197 30.9418 79.851 30.0515 79.1946 29.3952C78.5382 28.7388 77.648 28.37 76.7197 28.37C75.7915 28.37 74.9013 28.7388 74.2449 29.3952C73.5885 30.0515 73.2197 30.9418 73.2197 31.87V62.94C67.3997 61.76 59.2197 56.87 59.2197 38.85C59.2197 22.47 73.2197 2.74004 73.8297 1.91004C74.4088 1.1634 75.2603 0.676762 76.1975 0.556797C77.1347 0.436831 78.0813 0.693322 78.8297 1.27004C79.0696 1.45503 79.2847 1.67013 79.4697 1.91004C80.2097 2.74004 94.2197 22.47 94.2197 38.85Z" fill="#257CC0"/>
<path d="M80.2695 62.94V70.27C80.2695 71.1982 79.9008 72.0885 79.2444 72.7449C78.588 73.4013 77.6978 73.77 76.7695 73.77C75.8413 73.77 74.9511 73.4013 74.2947 72.7449C73.6383 72.0885 73.2695 71.1982 73.2695 70.27V62.94C75.5792 63.4101 77.9599 63.4101 80.2695 62.94V62.94Z" fill="#257CC0"/>
<path d="M48.5094 119.82C39.7494 125.09 27.0593 126.06 18.7193 126.06C13.9093 126.06 10.5294 125.75 10.1794 125.72C9.63645 125.656 9.1152 125.469 8.65584 125.173C8.19649 124.876 7.81121 124.478 7.52938 124.01C7.25478 123.531 7.09311 122.995 7.05672 122.444C7.02033 121.893 7.11009 121.341 7.31929 120.83C7.73929 119.89 17.5693 97.71 31.3193 89.45C38.9893 84.84 45.6893 83.27 51.1993 84.74C53.5473 85.3574 55.6965 86.5698 57.4393 88.26L51.3293 92.34L36.4793 102.25C35.7184 102.749 35.186 103.528 34.9986 104.419C34.8112 105.309 34.9841 106.237 35.4793 107V107.06C35.7939 107.542 36.2239 107.939 36.7303 108.213C37.2367 108.487 37.8035 108.63 38.3794 108.63C39.0637 108.639 39.733 108.429 40.2894 108.03L55.3894 97.96L61.3894 94.02C63.7094 99.35 65.1394 109.88 48.5094 119.82Z" fill="#257CC0"/>
<path d="M69.4998 88.61L61.4098 94.02C61.1878 93.4577 60.9306 92.9099 60.6398 92.38C59.8006 90.8523 58.7314 89.4627 57.4697 88.26L65.6598 82.82C66.4276 82.3108 67.3662 82.1274 68.2692 82.3103C69.1722 82.4931 69.9655 83.0272 70.4747 83.795C70.9839 84.5628 71.1673 85.5014 70.9845 86.4044C70.8016 87.3074 70.2676 88.1008 69.4998 88.61V88.61Z" fill="#257CC0"/>
<path d="M146.049 124C145.768 124.468 145.382 124.866 144.923 125.163C144.464 125.459 143.942 125.646 143.399 125.71C143.049 125.71 139.659 126.05 134.849 126.05C126.519 126.05 113.849 125.05 105.039 119.81C88.4395 109.87 89.8695 99.34 92.1695 94.01L98.1695 97.95L113.269 108.02C113.829 108.42 114.502 108.63 115.189 108.62C115.933 108.612 116.655 108.367 117.25 107.92C117.844 107.473 118.281 106.848 118.495 106.136C118.71 105.424 118.691 104.661 118.441 103.961C118.192 103.26 117.725 102.657 117.109 102.24L102.249 92.33L96.1495 88.25C97.8922 86.5597 100.041 85.3474 102.389 84.73C107.899 83.26 114.599 84.83 122.269 89.44C136.039 97.7 145.879 119.88 146.269 120.82C146.472 121.333 146.558 121.885 146.519 122.435C146.481 122.985 146.321 123.52 146.049 124V124Z" fill="#257CC0"/>
<path d="M96.1095 88.26C94.8473 89.4647 93.7752 90.8539 92.9295 92.38C92.6419 92.9102 92.3881 93.4579 92.1695 94.02L84.0794 88.61C83.3116 88.1021 82.7771 87.31 82.5933 86.408C82.4096 85.5059 82.5916 84.5678 83.0994 83.8C83.6073 83.0322 84.3994 82.4976 85.3015 82.3138C86.2035 82.1301 87.1417 82.3122 87.9095 82.82V82.82L96.1095 88.26Z" fill="#257CC0"/>
<path d="M43.2397 75.05C42.9254 75.0468 42.6129 75.0031 42.3098 74.92C41.8698 74.8007 41.4575 74.5958 41.0967 74.3171C40.7359 74.0384 40.4336 73.6913 40.207 73.2957C39.9804 72.9 39.834 72.4636 39.7761 72.0114C39.7183 71.5592 39.75 71.1 39.8697 70.66V70.66C41.5794 64.4869 44.8313 58.8501 49.3197 54.28C49.6414 53.9517 50.0247 53.69 50.4476 53.5098C50.8705 53.3296 51.3248 53.2345 51.7844 53.2299C52.2441 53.2252 52.7001 53.3111 53.1266 53.4828C53.553 53.6544 53.9415 53.9083 54.2698 54.23C54.5981 54.5518 54.8597 54.935 55.0399 55.3579C55.2201 55.7808 55.3153 56.235 55.3199 56.6947C55.3246 57.1543 55.2386 57.6104 55.067 58.0368C54.8954 58.4633 54.6414 58.8517 54.3197 59.18C50.6568 62.8984 48.0031 67.4899 46.6097 72.52C46.399 73.2505 45.9562 73.8926 45.3481 74.349C44.7401 74.8055 44 75.0516 43.2397 75.05V75.05Z" fill="#FFC834"/>
<path d="M5.77973 102.56C5.00503 102.561 4.25239 102.302 3.64166 101.826C3.03094 101.349 2.59726 100.682 2.40973 99.93C-2.48717 80.5348 0.371407 59.9945 10.3782 42.6735C20.3851 25.3524 36.7514 12.6159 55.9997 7.17C56.4449 7.01464 56.9169 6.95109 57.3873 6.9832C57.8577 7.0153 58.3167 7.1424 58.7366 7.35679C59.1566 7.57119 59.5286 7.86845 59.8305 8.23063C60.1324 8.59282 60.3577 9.01241 60.493 9.46409C60.6282 9.91577 60.6705 10.3902 60.6174 10.8587C60.5642 11.3271 60.4167 11.78 60.1837 12.1899C59.9506 12.5998 59.637 12.9582 59.2617 13.2435C58.8863 13.5289 58.457 13.7352 57.9997 13.85H57.8397C40.3472 18.808 25.4767 30.3903 16.387 46.1366C7.29736 61.883 4.70474 80.5527 9.15973 98.18C9.38385 99.0764 9.24337 100.025 8.7691 100.818C8.29484 101.611 7.52545 102.183 6.6297 102.41C6.35298 102.492 6.06784 102.542 5.77973 102.56V102.56Z" fill="#FFC834"/>
<path d="M53.6694 154C53.2996 153.999 52.932 153.942 52.5794 153.83C41.5791 150.19 31.5523 144.092 23.2594 136C22.5964 135.353 22.2176 134.469 22.2063 133.542C22.1951 132.616 22.5522 131.723 23.1994 131.06C23.8465 130.397 24.7306 130.018 25.657 130.007C26.5834 129.996 27.4764 130.353 28.1394 131C35.6613 138.359 44.7668 143.901 54.7594 147.2C55.5438 147.462 56.2097 147.994 56.6382 148.702C57.0667 149.409 57.23 150.246 57.0991 151.062C56.9682 151.879 56.5516 152.623 55.9235 153.161C55.2953 153.699 54.4965 153.996 53.6694 154Z" fill="#FFC834"/>
<path d="M24.4794 84.5C24.0211 84.4987 23.5675 84.4072 23.1445 84.2306C22.7216 84.054 22.3377 83.7958 22.0145 83.4708C21.6914 83.1458 21.4354 82.7603 21.2612 82.3364C21.0871 81.9124 20.9981 81.4583 20.9994 81C20.9648 71.5755 23.3342 62.2978 27.8837 54.0441C32.4331 45.7903 39.0124 38.833 46.9994 33.83C47.7807 33.3784 48.7065 33.247 49.5825 33.4633C50.4586 33.6797 51.2168 34.2269 51.6981 34.9902C52.1794 35.7535 52.3463 36.6736 52.1638 37.5573C51.9813 38.4411 51.4636 39.2198 50.7194 39.73C43.7386 44.1129 37.9895 50.2018 34.0144 57.4225C30.0393 64.6432 27.9692 72.7575 27.9994 81C28.002 81.457 27.9147 81.9101 27.7422 82.3333C27.5697 82.7565 27.3156 83.1416 26.9943 83.4666C26.673 83.7916 26.2908 84.0502 25.8696 84.2275C25.4484 84.4048 24.9964 84.4974 24.5394 84.5H24.4794Z" fill="#FFC834"/>
<path d="M110.33 75.5C109.569 75.4953 108.83 75.243 108.226 74.781C107.622 74.3191 107.184 73.6728 106.98 72.94C105.582 67.9116 102.929 63.3211 99.2697 59.6C98.9256 59.2768 98.6505 58.8872 98.4609 58.4549C98.2712 58.0225 98.1709 57.5563 98.1662 57.0842C98.1614 56.6121 98.2523 56.144 98.4332 55.7079C98.6141 55.2718 98.8813 54.8769 99.2188 54.5468C99.5563 54.2167 99.9572 53.9583 100.397 53.7871C100.837 53.616 101.307 53.5356 101.779 53.5508C102.251 53.5661 102.715 53.6766 103.143 53.8758C103.571 54.0751 103.954 54.3588 104.27 54.71C108.754 59.2791 112.006 64.9116 113.72 71.08C113.965 71.9724 113.846 72.9258 113.388 73.7303C112.931 74.5348 112.172 75.1246 111.28 75.37C110.971 75.458 110.651 75.5018 110.33 75.5V75.5Z" fill="#FFC834"/>
<path d="M147.79 103C147.334 103.003 146.882 102.916 146.46 102.744C146.038 102.572 145.654 102.318 145.33 101.998C145.006 101.678 144.748 101.296 144.571 100.876C144.395 100.456 144.302 100.006 144.3 99.55C144.296 99.2498 144.333 98.9504 144.41 98.66C148.867 81.0313 146.274 62.3592 137.182 46.612C128.09 30.8647 113.215 19.2837 95.7197 14.33C95.2784 14.2059 94.866 13.9961 94.5058 13.7126C94.1456 13.4291 93.8448 13.0774 93.6205 12.6777C93.3963 12.2779 93.253 11.8379 93.1988 11.3828C93.1446 10.9276 93.1806 10.4663 93.3047 10.025C93.4288 9.58378 93.6385 9.17131 93.9221 8.81114C94.2056 8.45098 94.5573 8.15019 94.9571 7.92594C95.3568 7.70168 95.7967 7.55837 96.2519 7.50417C96.707 7.44996 97.1684 7.48593 97.6097 7.61003V7.61003C116.852 13.0622 133.212 25.8014 143.212 43.1217C153.213 60.442 156.068 80.9788 151.17 100.37C150.98 101.122 150.545 101.79 149.932 102.267C149.32 102.743 148.566 103.001 147.79 103V103Z" fill="#FFC834"/>
<path d="M99.9094 154.42C99.0823 154.416 98.2835 154.119 97.6553 153.581C97.0272 153.043 96.6105 152.299 96.4796 151.482C96.3486 150.666 96.512 149.829 96.9405 149.122C97.369 148.414 98.0349 147.882 98.8193 147.62C108.807 144.31 117.91 138.77 125.439 131.42C125.768 131.1 126.156 130.847 126.582 130.677C127.008 130.506 127.463 130.421 127.922 130.427C128.381 130.432 128.834 130.528 129.255 130.709C129.677 130.89 130.059 131.152 130.379 131.48C130.7 131.808 130.952 132.197 131.123 132.622C131.293 133.048 131.378 133.504 131.372 133.962C131.367 134.421 131.271 134.874 131.09 135.296C130.91 135.718 130.648 136.1 130.319 136.42V136.42C122.026 144.509 111.999 150.603 100.999 154.24C100.648 154.36 100.28 154.42 99.9094 154.42V154.42Z" fill="#FFC834"/>
<path d="M129.099 85C128.642 85.0013 128.19 84.9126 127.767 84.7389C127.344 84.5652 126.96 84.31 126.636 83.9878C126.312 83.6656 126.054 83.2827 125.878 82.861C125.702 82.4393 125.611 81.987 125.609 81.53V81.53C125.635 73.2815 123.557 65.1627 119.571 57.9412C115.585 50.7198 109.823 44.6342 102.829 40.26C102.07 39.7572 101.537 38.9772 101.344 38.0867C101.152 37.1962 101.315 36.2657 101.8 35.4941C102.284 34.7225 103.051 34.1708 103.937 33.9571C104.822 33.7433 105.756 33.8843 106.54 34.35C114.526 39.356 121.105 46.3153 125.654 54.5705C130.203 62.8257 132.573 72.1043 132.54 81.53C132.532 82.4427 132.168 83.3164 131.525 83.9646C130.883 84.6129 130.012 84.9844 129.099 85V85Z" fill="#FFC834"/>
</svg>
