<svg width="767" height="205" viewBox="0 0 767 205" fill="none" xmlns="http://www.w3.org/2000/svg">
<path d="M240.414 63.3274C242.93 63.3274 245.124 63.0214 246.994 62.4093C248.864 61.7632 250.411 60.8622 251.635 59.706C252.893 58.5159 253.828 57.0878 254.441 55.4216C255.053 53.7215 255.359 51.8343 255.359 49.7601C255.359 47.7879 255.053 46.0027 254.441 44.4045C253.828 42.8064 252.91 41.4463 251.686 40.3241C250.462 39.202 248.915 38.352 247.045 37.7739C245.175 37.1618 242.964 36.8558 240.414 36.8558H230.162V63.3274H240.414ZM240.414 26.2468C245.345 26.2468 249.612 26.8248 253.216 27.9809C256.821 29.1371 259.796 30.7522 262.142 32.8264C264.488 34.9006 266.223 37.3829 267.345 40.2731C268.501 43.1634 269.079 46.3257 269.079 49.7601C269.079 53.3304 268.484 56.6117 267.294 59.604C266.104 62.5623 264.318 65.1126 261.938 67.2548C259.558 69.397 256.566 71.0632 252.961 72.2533C249.391 73.4434 245.209 74.0385 240.414 74.0385H230.162V100H216.442V26.2468H240.414ZM349.936 63.1234C349.936 68.5299 349.035 73.5454 347.233 78.1699C345.465 82.7603 342.949 86.7387 339.684 90.105C336.42 93.4714 332.493 96.1066 327.902 98.0108C323.312 99.881 318.211 100.816 312.601 100.816C307.024 100.816 301.941 99.881 297.35 98.0108C292.76 96.1066 288.815 93.4714 285.517 90.105C282.253 86.7387 279.719 82.7603 277.917 78.1699C276.115 73.5454 275.214 68.5299 275.214 63.1234C275.214 57.7169 276.115 52.7184 277.917 48.1279C279.719 43.5035 282.253 39.5081 285.517 36.1417C288.815 32.7754 292.76 30.1571 297.35 28.287C301.941 26.3828 307.024 25.4307 312.601 25.4307C316.341 25.4307 319.86 25.8727 323.159 26.7568C326.457 27.6069 329.483 28.831 332.237 30.4292C334.992 31.9933 337.457 33.9145 339.633 36.1927C341.843 38.437 343.714 40.9532 345.244 43.7415C346.774 46.5298 347.93 49.5561 348.712 52.8204C349.528 56.0847 349.936 59.519 349.936 63.1234ZM335.91 63.1234C335.91 59.077 335.366 55.4556 334.278 52.2593C333.19 49.029 331.642 46.2917 329.636 44.0475C327.63 41.8033 325.182 40.0861 322.292 38.896C319.435 37.7059 316.205 37.1108 312.601 37.1108C308.996 37.1108 305.749 37.7059 302.859 38.896C300.002 40.0861 297.554 41.8033 295.514 44.0475C293.508 46.2917 291.961 49.029 290.872 52.2593C289.784 55.4556 289.24 59.077 289.24 63.1234C289.24 67.1698 289.784 70.8081 290.872 74.0385C291.961 77.2348 293.508 79.955 295.514 82.1993C297.554 84.4095 300.002 86.1096 302.859 87.2998C305.749 88.4899 308.996 89.0849 312.601 89.0849C316.205 89.0849 319.435 88.4899 322.292 87.2998C325.182 86.1096 327.63 84.4095 329.636 82.1993C331.642 79.955 333.19 77.2348 334.278 74.0385C335.366 70.8081 335.91 67.1698 335.91 63.1234ZM458.625 26.2468L435.723 100H423.329L407.212 49.6071C406.77 48.3829 406.362 46.8868 405.988 45.1186C405.784 45.9687 405.579 46.7678 405.375 47.5159C405.171 48.2639 404.95 48.961 404.712 49.6071L388.442 100H375.997L353.146 26.2468H364.622C365.813 26.2468 366.799 26.5358 367.581 27.1139C368.397 27.6579 368.941 28.406 369.213 29.3581L381.76 73.4774C382.032 74.5655 382.287 75.7556 382.525 77.0477C382.797 78.3059 383.069 79.632 383.341 81.0261C383.613 79.598 383.902 78.2549 384.208 76.9967C384.548 75.7386 384.905 74.5655 385.28 73.4774L399.765 29.3581C400.037 28.576 400.564 27.8619 401.346 27.2159C402.162 26.5698 403.148 26.2468 404.304 26.2468H408.334C409.524 26.2468 410.493 26.5358 411.241 27.1139C411.989 27.6919 412.55 28.44 412.924 29.3581L427.359 73.4774C428.073 75.5856 428.719 78.0168 429.297 80.7711C429.739 78.0849 430.232 75.6536 430.776 73.4774L443.323 29.3581C443.527 28.508 444.037 27.7769 444.853 27.1649C445.703 26.5528 446.707 26.2468 447.863 26.2468H458.625ZM481.453 37.1618V57.6148H507.261V68.1729H481.453V89.0339H514.198V100H467.681V26.2468H514.198V37.1618H481.453ZM548.646 61.3382C551.23 61.3382 553.475 61.0152 555.379 60.3691C557.317 59.723 558.898 58.839 560.122 57.7169C561.38 56.5607 562.315 55.2006 562.928 53.6365C563.54 52.0723 563.846 50.3551 563.846 48.4849C563.846 44.7446 562.605 41.8713 560.122 39.8651C557.674 37.8589 553.917 36.8558 548.85 36.8558H540.077V61.3382H548.646ZM583.942 100H571.547C569.201 100 567.501 99.0819 566.447 97.2457L550.941 73.6304C550.363 72.7463 549.717 72.1173 549.003 71.7432C548.323 71.3692 547.303 71.1822 545.943 71.1822H540.077V100H526.357V26.2468H548.85C553.849 26.2468 558.133 26.7738 561.703 27.8279C565.308 28.848 568.249 30.2932 570.527 32.1633C572.84 34.0335 574.54 36.2777 575.628 38.896C576.716 41.4803 577.26 44.3365 577.26 47.4648C577.26 49.9471 576.886 52.2933 576.138 54.5035C575.424 56.7138 574.37 58.72 572.976 60.5221C571.615 62.3243 569.915 63.9055 567.875 65.2656C565.869 66.6257 563.574 67.6968 560.989 68.4789C561.873 68.989 562.69 69.601 563.438 70.3151C564.186 70.9952 564.866 71.8112 565.478 72.7633L583.942 100Z" fill="#414042"/>
<path d="M278.617 108.577V182.33H264.846V150.095H230.213V182.33H216.442V108.577H230.213V140.302H264.846V108.577H278.617ZM324.726 171.262C327.378 171.262 329.742 170.82 331.816 169.936C333.924 169.052 335.692 167.81 337.12 166.212C338.549 164.614 339.637 162.676 340.385 160.398C341.167 158.119 341.558 155.569 341.558 152.747V108.577H355.278V152.747C355.278 157.133 354.564 161.197 353.136 164.937C351.742 168.643 349.719 171.857 347.066 174.577C344.448 177.263 341.252 179.372 337.477 180.902C333.703 182.398 329.453 183.146 324.726 183.146C319.966 183.146 315.698 182.398 311.924 180.902C308.15 179.372 304.936 177.263 302.284 174.577C299.666 171.857 297.643 168.643 296.214 164.937C294.82 161.197 294.123 157.133 294.123 152.747V108.577H307.844V152.696C307.844 155.518 308.218 158.068 308.966 160.347C309.748 162.625 310.853 164.58 312.281 166.212C313.743 167.81 315.511 169.052 317.586 169.936C319.694 170.82 322.074 171.262 324.726 171.262ZM450.728 108.577V182.33H438.64V134.691C438.64 132.787 438.742 130.73 438.946 128.52L416.656 170.395C415.602 172.401 413.987 173.404 411.811 173.404H409.873C407.696 173.404 406.081 172.401 405.027 170.395L382.483 128.367C382.585 129.489 382.67 130.594 382.738 131.682C382.806 132.77 382.84 133.773 382.84 134.691V182.33H370.752V108.577H381.106C381.718 108.577 382.245 108.594 382.687 108.628C383.129 108.662 383.52 108.747 383.86 108.883C384.234 109.019 384.557 109.24 384.829 109.546C385.135 109.852 385.424 110.26 385.696 110.77L407.781 151.727C408.36 152.815 408.887 153.937 409.363 155.093C409.873 156.249 410.366 157.439 410.842 158.664C411.318 157.405 411.811 156.198 412.321 155.042C412.831 153.852 413.375 152.713 413.953 151.625L435.732 110.77C436.004 110.26 436.293 109.852 436.599 109.546C436.905 109.24 437.228 109.019 437.568 108.883C437.942 108.747 438.35 108.662 438.793 108.628C439.235 108.594 439.762 108.577 440.374 108.577H450.728ZM506.151 154.481L497.174 129.948C496.732 128.86 496.273 127.567 495.797 126.071C495.321 124.575 494.845 122.96 494.369 121.226C493.927 122.96 493.468 124.592 492.992 126.122C492.516 127.618 492.057 128.928 491.615 130.05L482.689 154.481H506.151ZM530.378 182.33H519.769C518.579 182.33 517.61 182.041 516.862 181.463C516.114 180.851 515.553 180.103 515.179 179.219L509.67 164.172H479.118L473.61 179.219C473.338 180.001 472.811 180.715 472.029 181.361C471.247 182.007 470.277 182.33 469.121 182.33H458.41L487.432 108.577H501.408L530.378 182.33ZM600.187 108.577V182.33H593.149C592.061 182.33 591.143 182.16 590.395 181.82C589.68 181.446 588.983 180.834 588.303 179.984L549.795 130.815C549.999 133.059 550.101 135.133 550.101 137.037V182.33H538.012V108.577H545.204C545.782 108.577 546.275 108.611 546.683 108.679C547.125 108.713 547.499 108.815 547.805 108.985C548.145 109.121 548.468 109.342 548.774 109.648C549.08 109.92 549.42 110.294 549.795 110.77L588.456 160.143C588.354 158.953 588.269 157.779 588.201 156.623C588.133 155.467 588.099 154.396 588.099 153.41V108.577H600.187ZM630.383 182.33H616.612V108.577H630.383V182.33ZM698.411 119.849H676.173V182.33H662.453V119.849H640.214V108.577H698.411V119.849ZM739.736 153.767V182.33H726.067V153.767L699.187 108.577H711.276C712.466 108.577 713.401 108.866 714.081 109.444C714.795 110.022 715.39 110.753 715.866 111.637L729.331 136.272C730.113 137.734 730.793 139.112 731.372 140.404C731.984 141.696 732.528 142.988 733.004 144.28C733.446 142.988 733.956 141.696 734.534 140.404C735.112 139.112 735.775 137.734 736.523 136.272L749.937 111.637C750.311 110.889 750.872 110.192 751.621 109.546C752.369 108.9 753.321 108.577 754.477 108.577H766.616L739.736 153.767Z" fill="#414042"/>
<path d="M171.89 109.37C171.75 167.29 115.7 208.26 60.23 191C17.65 177.75 -7.93006 133.4 2.43994 89.9999C4.60845 81.664 7.67999 73.5896 11.6 65.9199C16.16 56.5599 25.6 53.7398 33.66 58.3398C41.72 62.9398 43.55 72.4798 38.13 81.6998C36.9577 83.8554 35.9547 86.0989 35.13 88.4099C26.64 109.82 31.5499 132.7 48.0699 148.84C63.4999 163.93 86.81 168.19 107.3 159.67C120.732 154.091 131.397 143.405 136.95 129.962C142.503 116.52 142.489 101.422 136.91 87.9899C136.035 85.9298 135.033 83.926 133.91 81.9899C128.91 73.0699 129.59 65.2998 135.79 60.2098C143.99 53.4698 154.79 55.8699 160.37 65.6499C168.041 78.9349 172.018 94.0299 171.89 109.37V109.37Z" fill="#257CC0"/>
<path d="M86 74.76C66.61 74.38 52.9099 59.61 52.5699 42.31C52.1699 21.92 67.75 7.59002 86.43 7.73002C95.116 8.0808 103.326 11.7923 109.327 18.0813C115.329 24.3704 118.652 32.745 118.597 41.4379C118.541 50.1308 115.11 58.462 109.028 64.6735C102.947 70.885 94.6898 74.4908 86 74.73V74.76Z" fill="#257CC0"/>
<path d="M61.22 114.06C61.191 110.82 61.8004 107.606 63.0134 104.602C64.2265 101.598 66.0194 98.8621 68.2898 96.5509C70.5602 94.2396 73.2638 92.3982 76.2459 91.1318C79.228 89.8654 82.4303 89.1988 85.6701 89.17H86.22C99.43 89.1 110.84 100.41 110.95 113.66C111.071 116.946 110.54 120.223 109.386 123.302C108.232 126.381 106.48 129.2 104.229 131.598C101.979 133.995 99.2757 135.922 96.2758 137.268C93.2758 138.613 90.0388 139.351 86.752 139.438C83.4651 139.524 80.1938 138.958 77.1271 137.772C74.0604 136.586 71.2593 134.804 68.8859 132.529C66.5124 130.253 64.6137 127.53 63.2996 124.516C61.9855 121.502 61.2821 118.257 61.23 114.97C61.22 114.67 61.22 114.37 61.22 114.06Z" fill="#FFC834"/>
</svg>
