<svg width="155" height="131" viewBox="0 0 155 131" fill="none" xmlns="http://www.w3.org/2000/svg">
<path d="M117 10.11C112.77 4.56002 106.33 1.39002 97.3196 0.420022C96.4596 0.340022 95.6697 0.290017 94.8897 0.290017C88.422 0.359027 82.1672 2.61073 77.1397 6.68002C72.1148 2.61285 65.8639 0.361274 59.3997 0.290017V0.290017C58.5879 0.288485 57.7766 0.33189 56.9696 0.420022C47.9696 1.42002 41.5097 4.56002 37.2797 10.11C33.0497 15.66 31.6896 22.86 33.1196 31.65C35.1196 44.09 50.0096 58.05 61.9696 69.3C61.9696 69.3 67.9696 75.3 69.7296 76.82C71.0796 77.98 73.9997 80.31 77.1697 80.31C80.3397 80.31 83.2596 77.98 84.5996 76.82C86.3896 75.29 92.3596 69.3 92.3596 69.3C104.36 58.05 119.16 44.08 121.2 31.65C122.56 22.86 121.17 15.61 117 10.11ZM92.8097 37.91C92.8097 38.9709 92.3882 39.9883 91.6381 40.7385C90.8879 41.4886 89.8706 41.91 88.8097 41.91H82.4596V48.26C82.4596 49.3209 82.0383 50.3383 81.2881 51.0885C80.538 51.8386 79.5205 52.26 78.4596 52.26H75.7897C74.7288 52.26 73.7113 51.8386 72.9612 51.0885C72.2111 50.3383 71.7897 49.3209 71.7897 48.26V41.91H65.4396C64.3787 41.91 63.3614 41.4886 62.6112 40.7385C61.8611 39.9883 61.4396 38.9709 61.4396 37.91V35.23C61.4396 34.1692 61.8611 33.1517 62.6112 32.4016C63.3614 31.6514 64.3787 31.23 65.4396 31.23H71.7897V24.88C71.7897 23.8192 72.2111 22.8017 72.9612 22.0516C73.7113 21.3015 74.7288 20.88 75.7897 20.88H78.4596C79.5205 20.88 80.538 21.3015 81.2881 22.0516C82.0383 22.8017 82.4596 23.8192 82.4596 24.88V31.23H88.8097C89.8706 31.23 90.8879 31.6514 91.6381 32.4016C92.3882 33.1517 92.8097 34.1692 92.8097 35.23V37.91Z" fill="#FFC834"/>
<path d="M0.199341 64.61V65.61C0.339341 70.66 9.08941 90.85 13.7694 95.61C18.4494 100.37 40.1394 112.61 40.1394 112.61C40.9194 113.26 45.2594 116.61 45.2594 120.96V125.89C45.2594 125.89 44.6394 130.46 49.6294 130.46H66.4994C71.4394 130.46 70.4994 126 70.4994 124.46V121.77C70.5731 120.172 70.74 118.579 70.9994 117C71.5494 115.17 71.1094 111.71 70.8494 110.37C67.9194 97.3 57.1394 89.58 55.9594 88.67C55.3094 88.17 50.1494 84.26 35.8394 83.31C35.0035 83.1332 34.2219 82.7596 33.5594 82.22L33.0494 81.88C32.3127 81.4091 31.6404 80.8444 31.0494 80.2C29.9594 78.89 28.7194 77.79 27.6794 76.34C20.6794 66.64 13.8994 64.7 12.8794 64.34C11.5294 63.69 10.5994 63.5 10.2994 62.57C10.1794 62.14 8.99942 50.87 8.77942 48.98C8.19942 43.55 7.61939 39.52 4.49939 38.43C4.16761 38.256 3.78498 38.2047 3.41907 38.2852C3.05316 38.3657 2.72749 38.5728 2.49939 38.87C1.78939 39.62 1.36943 43.56 1.16943 46.06C1.16943 46.06 0.169434 58.85 0.169434 64.62L0.199341 64.61Z" fill="#257CC0"/>
<path d="M151.599 38.83C151.368 38.5375 151.042 38.3341 150.678 38.2539C150.313 38.1737 149.933 38.2218 149.599 38.39C146.489 39.48 145.909 43.51 145.319 48.94C145.109 50.83 143.93 62.1 143.81 62.53C143.5 63.46 142.579 63.65 141.219 64.3C140.219 64.69 133.38 66.63 126.43 76.3C125.43 77.75 124.15 78.85 123.05 80.16C122.461 80.8072 121.789 81.3722 121.05 81.84L120.54 82.18C119.872 82.718 119.088 83.0914 118.25 83.27C103.94 84.27 98.7795 88.13 98.1295 88.63C96.9595 89.54 86.1295 97.26 83.2395 110.33C82.9795 111.67 82.5495 115.13 83.0895 116.96C83.2895 118.56 83.5595 120.16 83.6195 121.77V124.46C83.6195 126.02 82.6195 130.46 87.6195 130.46H104.489C109.489 130.46 108.87 125.89 108.87 125.89V121C108.87 116.63 113.199 113.3 113.979 112.65C113.979 112.65 137.369 99.16 140.349 95.65C143.329 92.14 153.35 70.65 153.92 65.65C154.49 60.65 152.92 46.02 152.92 46.02C152.73 43.52 152.309 39.58 151.599 38.83Z" fill="#257CC0"/>
</svg>
