<svg width="149" height="151" viewBox="0 0 149 151" fill="none" xmlns="http://www.w3.org/2000/svg">
<path d="M148.33 57C148.327 56.3466 148.066 55.721 147.603 55.2599C147.14 54.7988 146.513 54.54 145.86 54.54H143.12C144.768 52.937 146.078 51.02 146.972 48.9023C147.867 46.7845 148.329 44.509 148.33 42.21C148.327 41.5557 148.066 40.929 147.603 40.4663C147.141 40.0037 146.514 39.7426 145.86 39.74H140.93C138.692 39.7304 136.473 40.1584 134.4 41C135.411 39.0798 135.959 36.9497 136 34.78C136 26.83 128 20.78 127.61 20.47C127.178 20.1439 126.651 19.9675 126.11 19.9675C125.568 19.9675 125.042 20.1439 124.61 20.47C124.27 20.73 116.22 26.83 116.22 34.78C116.261 36.9485 116.805 39.0778 117.81 41C115.741 40.1489 113.526 39.7107 111.29 39.71H106.36C106.037 39.7087 105.716 39.771 105.417 39.8934C105.119 40.0158 104.847 40.1959 104.617 40.4234C104.388 40.6509 104.206 40.9214 104.081 41.2193C103.956 41.5173 103.891 41.8369 103.89 42.16C103.891 44.458 104.352 46.7327 105.245 48.8501C106.138 50.9675 107.445 52.8851 109.09 54.49H106.36C106.037 54.4887 105.716 54.551 105.417 54.6734C105.119 54.7958 104.847 54.9759 104.617 55.2034C104.388 55.4309 104.206 55.7014 104.081 55.9993C103.956 56.2973 103.891 56.6169 103.89 56.94V56.94C103.889 59.2384 104.348 61.5137 105.241 63.6314C106.135 65.7492 107.443 67.6664 109.09 69.27H106.36C105.705 69.2726 105.079 69.5337 104.616 69.9964C104.153 70.459 103.892 71.0857 103.89 71.74C103.891 74.038 104.352 76.3127 105.245 78.4301C106.138 80.5475 107.445 82.4651 109.09 84.07H106.36C106.037 84.0687 105.716 84.131 105.417 84.2534C105.119 84.3758 104.847 84.5559 104.617 84.7834C104.388 85.0109 104.206 85.2814 104.081 85.5793C103.956 85.8773 103.891 86.1969 103.89 86.52V86.52C103.889 88.8184 104.348 91.0937 105.241 93.2114C106.135 95.3292 107.443 97.2465 109.09 98.85H106.36C105.705 98.8526 105.079 99.1137 104.616 99.5763C104.153 100.039 103.892 100.666 103.89 101.32C103.895 105.896 105.715 110.283 108.951 113.519C112.187 116.755 116.574 118.575 121.15 118.58H123.62V143.24H76.8096V128.44H79.2797C85.1632 128.435 90.8042 126.095 94.9645 121.935C99.1248 117.775 101.464 112.134 101.47 106.25C101.47 105.597 101.211 104.97 100.75 104.507C100.289 104.044 99.663 103.783 99.0096 103.78H94.0797C93.7456 103.773 93.4114 103.789 93.0797 103.83C95.6814 101.757 97.7824 99.1242 99.2263 96.1273C100.67 93.1304 101.42 89.8466 101.42 86.52C101.409 85.8814 101.151 85.2718 100.699 84.8202C100.248 84.3686 99.6382 84.1103 98.9996 84.1H92.9996C95.6012 82.0291 97.7022 79.3981 99.1461 76.4028C100.59 73.4075 101.34 70.1251 101.34 66.8C101.341 66.4769 101.279 66.1568 101.156 65.8578C101.034 65.5589 100.854 65.2869 100.626 65.0576C100.399 64.8282 100.128 64.6459 99.8303 64.5211C99.5323 64.3962 99.2127 64.3313 98.8896 64.33H93.9996C93.6655 64.3227 93.3313 64.3395 92.9996 64.38C95.6014 62.3071 97.7024 59.6743 99.1463 56.6774C100.59 53.6805 101.34 50.3966 101.34 47.07C101.34 46.4166 101.081 45.7899 100.62 45.327C100.159 44.864 99.533 44.6026 98.8796 44.6H92.9496C95.5514 42.5271 97.6524 39.8943 99.0963 36.8974C100.54 33.9005 101.29 30.6166 101.29 27.29C101.29 26.6375 101.03 26.0118 100.569 25.5505C100.108 25.0892 99.4821 24.83 98.8297 24.83H93.8997C90.8828 24.822 87.8968 25.4382 85.1296 26.64C86.0127 24.498 86.4777 22.2068 86.4996 19.89C86.4996 9.27998 76.1296 1.03999 75.6896 0.689987C75.2596 0.359142 74.7322 0.179749 74.1896 0.179749C73.647 0.179749 73.1197 0.359142 72.6896 0.689987C72.2496 1.03999 61.8796 9.27998 61.8796 19.89C61.908 22.2051 62.3692 24.4945 63.2396 26.64C60.476 25.4382 57.4933 24.8219 54.4796 24.83H49.5496C48.8963 24.83 48.2695 25.0888 47.8066 25.5499C47.3437 26.011 47.0823 26.6366 47.0797 27.29C47.0794 30.6166 47.829 33.9005 49.2729 36.8974C50.7169 39.8943 52.8178 42.5271 55.4196 44.6H49.5496C48.8962 44.6052 48.2709 44.8671 47.8088 45.3292C47.3468 45.7913 47.0849 46.4165 47.0797 47.07C47.0794 50.3966 47.829 53.6805 49.2729 56.6774C50.7169 59.6743 52.8178 62.3071 55.4196 64.38C55.1096 64.38 54.7996 64.33 54.4796 64.33H49.5496C48.8953 64.3326 48.2686 64.5937 47.806 65.0564C47.3433 65.519 47.0823 66.1457 47.0797 66.8C47.0852 70.1241 47.8375 73.4046 49.2811 76.399C50.7246 79.3934 52.8224 82.0252 55.4196 84.1H49.5496C48.8963 84.1 48.2695 84.3588 47.8066 84.8199C47.3437 85.281 47.0823 85.9066 47.0797 86.56C47.0794 89.8866 47.829 93.1704 49.2729 96.1673C50.7169 99.1642 52.8178 101.797 55.4196 103.87C55.1096 103.87 54.7996 103.82 54.4796 103.82H49.5496C48.8962 103.825 48.2709 104.087 47.8088 104.549C47.3468 105.011 47.0849 105.637 47.0797 106.29C47.0876 112.174 49.4294 117.815 53.5912 121.975C57.7531 126.135 63.3952 128.475 69.2797 128.48H71.7396V143.28H24.9996V118.63H27.4696C32.0456 118.625 36.4327 116.805 39.6685 113.569C42.9042 110.333 44.7243 105.946 44.7296 101.37C44.7244 100.717 44.4625 100.091 44.0004 99.6292C43.5383 99.1671 42.9131 98.9052 42.2596 98.9H39.5197C41.1685 97.2976 42.4792 95.3808 43.3741 93.2629C44.269 91.145 44.7299 88.8692 44.7296 86.57C44.727 85.9166 44.4656 85.2909 44.0027 84.8299C43.5398 84.3688 42.913 84.11 42.2596 84.11H39.5197C41.1676 82.5069 42.4777 80.59 43.3725 78.4723C44.2673 76.3546 44.7288 74.079 44.7296 71.78C44.7244 71.1265 44.4625 70.5013 44.0004 70.0392C43.5383 69.5771 42.9131 69.3152 42.2596 69.31H39.5197C41.172 67.7129 42.4871 65.8005 43.3871 63.686C44.2872 61.5716 44.7539 59.298 44.7596 57C44.757 56.3466 44.4956 55.721 44.0327 55.2599C43.5697 54.7988 42.943 54.54 42.2896 54.54H39.5496C41.1976 52.937 42.5077 51.02 43.4025 48.9023C44.2974 46.7845 44.7588 44.509 44.7596 42.21C44.757 41.5557 44.4959 40.929 44.0333 40.4663C43.5706 40.0037 42.9439 39.7426 42.2896 39.74H37.3596C35.1197 39.7407 32.9016 40.1789 30.8297 41.03C31.8409 39.1098 32.3888 36.9797 32.4296 34.81C32.4296 26.86 24.4296 20.81 24.0396 20.5C23.6127 20.1841 23.0957 20.0137 22.5646 20.0137C22.0336 20.0137 21.5166 20.1841 21.0897 20.5C20.7497 20.76 12.6996 26.86 12.6996 34.81C12.7405 36.9797 13.2884 39.1098 14.2996 41.03C12.2277 40.1789 10.0096 39.7407 7.76965 39.74H2.83966C2.18539 39.7426 1.55865 40.0037 1.09601 40.4663C0.633363 40.929 0.372262 41.5557 0.369629 42.21C0.37047 44.509 0.83191 46.7845 1.72675 48.9023C2.62158 51.02 3.93169 52.937 5.57965 54.54H2.83966C2.18631 54.54 1.55955 54.7988 1.09662 55.2599C0.63369 55.721 0.372274 56.3466 0.369629 57C0.36934 59.2992 0.830318 61.575 1.72522 63.6929C2.62012 65.8108 3.93078 67.7276 5.57965 69.33H2.83966C2.18619 69.3352 1.56096 69.5971 1.09888 70.0592C0.636791 70.5213 0.374857 71.1465 0.369629 71.8C0.37047 74.099 0.83191 76.3745 1.72675 78.4923C2.62158 80.61 3.93169 82.527 5.57965 84.13H2.83966C2.18631 84.13 1.55955 84.3888 1.09662 84.8499C0.63369 85.311 0.372274 85.9366 0.369629 86.59C0.36934 88.8892 0.830318 91.1651 1.72522 93.2829C2.62012 95.4008 3.93078 97.3177 5.57965 98.92H2.83966C2.18619 98.9252 1.56096 99.1871 1.09888 99.6492C0.636791 100.111 0.374857 100.737 0.369629 101.39C0.374922 105.966 2.19512 110.353 5.43085 113.589C8.66658 116.825 13.0536 118.645 17.6296 118.65H20.0996V143.31H10.2396V148.24H138.46V143.31H128.6V118.63H131.06C135.637 118.627 140.027 116.808 143.265 113.572C146.503 110.336 148.324 105.948 148.33 101.37C148.324 100.717 148.062 100.091 147.6 99.6292C147.138 99.1671 146.513 98.9052 145.86 98.9H143.12C144.768 97.2976 146.079 95.3808 146.974 93.2629C147.869 91.145 148.33 88.8692 148.33 86.57C148.327 85.9166 148.066 85.2909 147.603 84.8299C147.14 84.3688 146.513 84.11 145.86 84.11H143.12C144.768 82.5069 146.078 80.59 146.972 78.4723C147.867 76.3546 148.329 74.079 148.33 71.78C148.324 71.1265 148.062 70.5013 147.6 70.0392C147.138 69.5771 146.513 69.3152 145.86 69.31H143.12C144.768 67.7114 146.078 65.7981 146.973 63.6835C147.868 61.5689 148.33 59.2961 148.33 57ZM96.3297 108.79C95.7317 112.897 93.6758 116.651 90.5378 119.366C87.3999 122.082 83.3895 123.578 79.2396 123.58H76.9996C77.5976 119.473 79.6534 115.719 82.7914 113.004C85.9293 110.288 89.9398 108.792 94.0897 108.79H96.3297ZM76.7697 112.13V108.79H80.1796C78.9402 109.772 77.8104 110.885 76.8096 112.11L76.7697 112.13ZM96.3696 89C95.7716 93.1065 93.7158 96.8607 90.5779 99.5764C87.4399 102.292 83.4295 103.788 79.2797 103.79H76.9996C77.5993 99.686 79.6543 95.9344 82.7897 93.2193C85.9252 90.5043 89.9321 89.0068 94.0797 89H96.3696ZM76.8096 92.34V89H79.2797C79.5938 89.0086 79.9081 88.9918 80.2196 88.95C78.9634 89.9679 77.8202 91.1178 76.8096 92.38V92.34ZM96.3696 69.27C95.7719 73.3775 93.7164 77.1329 90.5787 79.8501C87.441 82.5674 83.4304 84.0652 79.2797 84.07H76.9996C77.5974 79.9625 79.6529 76.2071 82.7906 73.4898C85.9283 70.7725 89.9389 69.2747 94.0897 69.27H96.3696ZM76.8096 72.61V69.27H79.2797C79.5925 69.2951 79.9068 69.2951 80.2196 69.27C78.9634 70.2879 77.8202 71.4378 76.8096 72.7V72.61ZM96.3696 49.54C95.7719 53.6475 93.7164 57.4029 90.5787 60.1202C87.441 62.8374 83.4304 64.3352 79.2797 64.34H76.9996C77.5974 60.2325 79.6529 56.4771 82.7906 53.7598C85.9283 51.0425 89.9389 49.5447 94.0897 49.54H96.3696ZM76.8096 52.89V49.54H80.2196C78.9617 50.5412 77.8182 51.678 76.8096 52.93V52.89ZM96.3696 29.82C95.7716 33.9265 93.7158 37.6807 90.5779 40.3964C87.4399 43.112 83.4295 44.6077 79.2797 44.61H76.9996C77.5976 40.5034 79.6534 36.7492 82.7914 34.0336C85.9293 31.318 89.9398 29.8223 94.0897 29.82H96.3696ZM74.3696 5.98999C76.9196 8.42999 81.7697 13.88 81.7697 19.99C81.7697 26.1 76.9196 31.51 74.3696 33.99C71.8196 31.54 66.9696 26.1 66.9696 19.99C66.9696 13.88 71.7996 8.46999 74.3496 5.98999H74.3696ZM52.3696 29.82H54.6596C58.8095 29.8223 62.8199 31.318 65.9579 34.0336C69.0958 36.7492 71.1517 40.5034 71.7496 44.61H69.4597C65.3094 44.6166 61.2953 43.1302 58.1503 40.4221C55.0053 37.7141 52.9393 33.9652 52.3297 29.86L52.3696 29.82ZM69.4597 49.54H71.9196V52.89C70.9119 51.6406 69.772 50.504 68.5197 49.5C68.8166 49.5538 69.1178 49.5805 69.4196 49.58L69.4597 49.54ZM52.3696 49.54H54.6596C58.8104 49.5447 62.821 51.0425 65.9587 53.7598C69.0964 56.4771 71.1519 60.2325 71.7496 64.34H69.4597C65.3085 64.3442 61.2942 62.8556 58.1495 60.1459C55.0047 57.4362 52.9391 53.6861 52.3297 49.58L52.3696 49.54ZM69.4597 69.27H71.9196V72.61C70.9093 71.363 69.7696 70.2266 68.5197 69.22C68.8156 69.2821 69.1173 69.3123 69.4196 69.31L69.4597 69.27ZM52.3696 69.27H54.6596C58.8104 69.2747 62.821 70.7725 65.9587 73.4898C69.0964 76.2071 71.1519 79.9625 71.7496 84.07H69.4597C65.3085 84.0742 61.2942 82.5856 58.1495 79.8759C55.0047 77.1663 52.9391 73.4161 52.3297 69.31L52.3696 69.27ZM69.3696 89H71.8297V92.34C70.8193 91.093 69.6796 89.9566 68.4296 88.95C68.7576 88.9946 69.0888 89.0113 69.4196 89H69.3696ZM52.2797 89H54.5696C58.7195 89.0023 62.7299 90.498 65.8679 93.2136C69.0058 95.9292 71.0616 99.6834 71.6596 103.79H69.3696C65.2284 103.776 61.23 102.275 58.1025 99.56C54.975 96.8455 52.9264 93.098 52.3297 89H52.2797ZM69.3696 108.73H71.8297V112.07C70.822 110.821 69.682 109.684 68.4296 108.68C68.74 108.735 69.0544 108.765 69.3696 108.77V108.73ZM69.3696 123.52C65.2198 123.518 61.2094 122.022 58.0714 119.306C54.9335 116.591 52.8776 112.837 52.2797 108.73H54.5696C58.7195 108.732 62.7299 110.228 65.8679 112.944C69.0058 115.659 71.0616 119.413 71.6596 123.52H69.3696ZM27.4996 113.7H25.2797C25.8503 110.916 27.3635 108.414 29.564 106.616C31.7646 104.818 34.5179 103.834 37.3596 103.83H39.5797C39.009 106.614 37.4958 109.116 35.2952 110.914C33.0947 112.712 30.3413 113.696 27.4996 113.7V113.7ZM27.4996 98.9H25.2797C25.8425 96.1098 27.3525 93.5999 29.5541 91.7957C31.7556 89.9914 34.5132 89.0038 37.3596 89H39.5797C39.0168 91.7902 37.5067 94.3001 35.3052 96.1043C33.1036 97.9085 30.346 98.8962 27.4996 98.9V98.9ZM27.4996 84.11H25.2797C25.8503 81.3261 27.3635 78.8243 29.564 77.0263C31.7646 75.2283 34.5179 74.2442 37.3596 74.24H39.5797C39.009 77.0238 37.4958 79.5257 35.2952 81.3237C33.0947 83.1216 30.3413 84.1057 27.4996 84.11V84.11ZM27.4996 69.31H25.2797C25.8541 66.5289 27.3686 64.0304 29.5686 62.2347C31.7686 60.439 34.5198 59.4556 37.3596 59.45H39.5797C39.0053 62.2311 37.4907 64.7296 35.2907 66.5253C33.0907 68.321 30.3394 69.3043 27.4996 69.31V69.31ZM39.5797 44.65C39.009 47.4338 37.4958 49.9357 35.2952 51.7337C33.0947 53.5316 30.3413 54.5157 27.4996 54.52H25.2797C25.8503 51.7362 27.3635 49.2343 29.564 47.4363C31.7646 45.6383 34.5179 44.6542 37.3596 44.65H39.5797ZM22.5797 25.72C24.4697 27.52 27.5096 31 27.5096 34.79C27.5096 38.58 24.5097 42.06 22.5797 43.86C20.6797 42.06 17.6396 38.57 17.6396 34.79C17.6396 31.01 20.6396 27.52 22.5696 25.72H22.5797ZM7.77966 44.65C10.6214 44.6542 13.3746 45.6383 15.5752 47.4363C17.7758 49.2343 19.289 51.7362 19.8596 54.52H17.6396C14.7979 54.5157 12.0446 53.5316 9.84406 51.7337C7.64348 49.9357 6.13027 47.4338 5.55963 44.65H7.77966ZM7.77966 59.45C10.6195 59.4556 13.3707 60.439 15.5707 62.2347C17.7707 64.0304 19.2852 66.5289 19.8596 69.31H17.6396C14.7998 69.3043 12.0486 68.321 9.84857 66.5253C7.64857 64.7296 6.13402 62.2311 5.55963 59.45H7.77966ZM7.77966 74.24C10.6214 74.2442 13.3746 75.2283 15.5752 77.0263C17.7758 78.8243 19.289 81.3261 19.8596 84.11H17.6396C14.7979 84.1057 12.0446 83.1216 9.84406 81.3237C7.64348 79.5257 6.13027 77.0238 5.55963 74.24H7.77966ZM7.77966 89.04C10.6195 89.0456 13.3707 90.029 15.5707 91.8247C17.7707 93.6204 19.2852 96.1189 19.8596 98.9H17.6396C14.792 98.8966 12.033 97.9093 9.82983 96.1052C7.62662 94.3011 6.11453 91.791 5.54962 89L7.77966 89.04ZM17.6396 113.7C14.7979 113.696 12.0446 112.712 9.84406 110.914C7.64348 109.116 6.13027 106.614 5.55963 103.83H7.77966C10.6214 103.834 13.3746 104.818 15.5752 106.616C17.7758 108.414 19.289 110.916 19.8596 113.7H17.6396ZM143.16 44.7C142.587 47.4846 141.072 49.9867 138.87 51.7846C136.667 53.5824 133.913 54.5662 131.07 54.57H128.86C129.43 51.7862 130.943 49.2843 133.144 47.4863C135.345 45.6883 138.098 44.7042 140.94 44.7H143.16ZM126.16 25.77C128.06 27.57 131.09 31.05 131.09 34.84C131.09 38.63 128.09 42.11 126.16 43.91C124.27 42.11 121.23 38.62 121.23 34.84C121.23 31.06 124.23 27.52 126.13 25.72L126.16 25.77ZM111.37 44.7C114.211 44.7042 116.965 45.6883 119.165 47.4863C121.366 49.2843 122.879 51.7862 123.45 54.57H121.2C118.358 54.5657 115.605 53.5816 113.404 51.7836C111.203 49.9857 109.69 47.4838 109.12 44.7H111.37ZM111.37 59.5C114.209 59.5056 116.961 60.489 119.161 62.2847C121.361 64.0804 122.875 66.5789 123.45 69.36H121.2C118.36 69.3543 115.609 68.371 113.409 66.5753C111.209 64.7796 109.694 62.2811 109.12 59.5H111.37ZM111.37 74.29C114.211 74.2942 116.965 75.2783 119.165 77.0763C121.366 78.8743 122.879 81.3762 123.45 84.16H121.2C118.358 84.1557 115.605 83.1717 113.404 81.3737C111.203 79.5757 109.69 77.0738 109.12 74.29H111.37ZM111.37 89.09C114.216 89.098 116.973 90.0885 119.174 91.8941C121.375 93.6996 122.885 96.2096 123.45 99H121.2C118.34 98.9897 115.572 97.9871 113.369 96.1634C111.166 94.3396 109.664 91.8078 109.12 89L111.37 89.09ZM121.23 113.75C118.388 113.746 115.635 112.762 113.434 110.964C111.234 109.166 109.72 106.664 109.15 103.88H111.37C114.211 103.884 116.965 104.868 119.165 106.666C121.366 108.464 122.879 110.966 123.45 113.75H121.23ZM131.09 113.75H128.88C129.452 110.959 130.971 108.452 133.18 106.654C135.388 104.855 138.151 103.875 141 103.88H143.22C142.634 106.66 141.11 109.153 138.903 110.941C136.696 112.729 133.94 113.704 131.1 113.7L131.09 113.75ZM131.09 98.95H128.88C129.431 96.1648 130.926 93.6547 133.111 91.8425C135.297 90.0302 138.04 89.0263 140.88 89H143.1C142.533 91.7902 141.02 94.2991 138.818 96.103C136.615 97.9068 133.857 98.8947 131.01 98.9L131.09 98.95ZM131.09 84.16H128.88C129.452 81.3694 130.971 78.8624 133.18 77.0637C135.388 75.2649 138.151 74.285 141 74.29H143.22C142.634 77.0696 141.11 79.5629 138.903 81.3512C136.696 83.1394 133.94 84.1136 131.1 84.11L131.09 84.16ZM131.09 69.36H128.88C129.45 66.5695 130.969 64.0627 133.179 62.2653C135.388 60.4679 138.151 59.4908 141 59.5H143.22C142.634 62.2786 141.109 64.7707 138.902 66.5573C136.694 68.3439 133.939 69.3159 131.1 69.31L131.09 69.36Z" fill="#257CC0"/>
<path d="M142.12 140.38H4.96973V150.27H142.12V140.38Z" fill="#FFC834"/>
</svg>
