<svg width="151" height="129" viewBox="0 0 151 129" fill="none" xmlns="http://www.w3.org/2000/svg">
<path d="M103.55 85.29C103.353 77.7632 100.175 70.6226 94.714 65.4391C89.253 60.2556 81.9565 57.4538 74.4297 57.65C66.9046 57.8489 59.7666 61.0284 54.5852 66.4891C49.4039 71.9499 46.6035 79.2448 46.7997 86.77L47.6096 117.71L52.8097 121.82C58.5887 126.42 65.774 128.891 73.1597 128.82H73.3997C84.2393 128.768 94.6975 124.813 102.86 117.68L104.37 116.36L103.55 85.29Z" fill="#257CC0"/>
<path d="M88.8674 48.0229C96.7611 39.7076 96.4096 26.5582 88.0822 18.6531C79.7549 10.748 66.6051 11.0805 58.7113 19.3959C50.8176 27.7112 51.1691 40.8605 59.4965 48.7657C67.8239 56.6708 80.9737 56.3383 88.8674 48.0229Z" fill="#FFC834"/>
<path d="M149.299 62.94C149.1 55.4149 145.921 48.2769 140.46 43.0956C134.999 37.9142 127.705 35.1138 120.179 35.3099V35.3099C113.216 35.4937 106.563 38.2311 101.487 43.0013C96.4107 47.7714 93.2653 54.2414 92.6494 61.1799C96.3027 63.7186 99.3065 67.0823 101.417 70.9983C103.528 74.9144 104.687 79.2726 104.799 83.72L105.319 103.6C109.579 105.56 114.221 106.55 118.909 106.5H119.149C129.988 106.441 140.444 102.488 148.609 95.3599L150.109 94.04L149.299 62.94Z" fill="#257CC0"/>
<path d="M0.609341 65.3499C0.566775 57.8238 3.51443 50.5888 8.80429 45.2352C14.0941 39.8816 21.2932 36.8475 28.8193 36.7999V36.7999C35.7881 36.7623 42.5273 39.2893 47.7534 43.8994C52.9795 48.5096 56.3273 54.8809 57.1594 61.7999C53.5905 64.4559 50.6969 67.9147 48.713 71.8965C46.729 75.8784 45.7103 80.2713 45.7393 84.7199L45.8593 104.6C41.6632 106.691 37.0566 107.828 32.3694 107.93H32.1194C21.2892 108.212 10.7176 104.596 2.32931 97.7399L0.779385 96.4599L0.609341 65.3499Z" fill="#257CC0"/>
<path d="M30.2698 33.81C38.0073 33.81 44.2798 27.5375 44.2798 19.8C44.2798 12.0624 38.0073 5.78995 30.2698 5.78995C22.5323 5.78995 16.2598 12.0624 16.2598 19.8C16.2598 27.5375 22.5323 33.81 30.2698 33.81Z" fill="#FFC834"/>
<path d="M121.603 31.3993C129.134 29.6219 133.798 22.0763 132.02 14.5457C130.243 7.01511 122.697 2.35121 115.167 4.12859C107.636 5.90598 102.972 13.4516 104.749 20.9822C106.527 28.5128 114.072 33.1767 121.603 31.3993Z" fill="#FFC834"/>
</svg>
