<svg width="111" height="150" viewBox="0 0 111 150" fill="none" xmlns="http://www.w3.org/2000/svg">
<path d="M82.432 14.1567C82.4749 13.033 82.2954 11.912 81.9039 10.8578C81.5124 9.80367 80.9166 8.83721 80.1507 8.01393C79.3847 7.19065 78.4637 6.52674 77.4405 6.06032C76.4173 5.59389 75.3121 5.33413 74.1882 5.29594C73.0644 5.25776 71.944 5.4419 70.8915 5.8378C69.839 6.23369 68.8751 6.83356 68.055 7.60295C67.235 8.37234 66.5749 9.29612 66.1128 10.3213C65.6506 11.3464 65.3955 12.4527 65.362 13.5767C65.352 13.7699 65.352 13.9635 65.362 14.1567V57.1567C65.362 59.4296 66.2649 61.6094 67.8721 63.2166C69.4793 64.8238 71.6591 65.7267 73.932 65.7267C76.2049 65.7267 78.3847 64.8238 79.9919 63.2166C81.5991 61.6094 82.502 59.4296 82.502 57.1567V16.4967C82.492 16.3836 82.492 16.2698 82.502 16.1567L82.432 14.1567Z" fill="#FFC834"/>
<path d="M105.182 41.2767V14.1567C105.225 13.033 105.045 11.912 104.654 10.8578C104.262 9.80367 103.667 8.83721 102.901 8.01393C102.135 7.19065 101.214 6.52674 100.19 6.06032C99.1673 5.59389 98.0621 5.33413 96.9382 5.29594C95.8144 5.25776 94.694 5.4419 93.6415 5.8378C92.589 6.23369 91.6251 6.83356 90.805 7.60295C89.985 8.37234 89.3249 9.29612 88.8628 10.3213C88.4006 11.3464 88.1455 12.4527 88.112 13.5767C88.102 13.7699 88.102 13.9635 88.112 14.1567V16.1567C88.122 16.2698 88.122 16.3836 88.112 16.4967V57.4467C88.112 59.7196 89.0149 61.8994 90.6221 63.5066C92.2293 65.1138 94.4091 66.0167 96.682 66.0167C98.9549 66.0167 101.135 65.1138 102.742 63.5066C104.349 61.8994 105.252 59.7196 105.252 57.4467L105.182 41.2767Z" fill="#FFC834"/>
<path d="M59.722 14.1567C59.7649 13.033 59.5855 11.912 59.194 10.8578C58.8025 9.80367 58.2067 8.83721 57.4407 8.01393C56.6747 7.19065 55.7538 6.52674 54.7306 6.06032C53.7074 5.59389 52.6021 5.33413 51.4782 5.29594C50.3544 5.25776 49.2341 5.4419 48.1816 5.8378C47.1291 6.23369 46.1651 6.83356 45.3451 7.60295C44.525 8.37234 43.8649 9.29612 43.4028 10.3213C42.9407 11.3464 42.6855 12.4527 42.652 13.5767C42.642 13.7699 42.642 13.9635 42.652 14.1567V16.1567C42.6623 16.2731 42.6623 16.3903 42.652 16.5067V33.8367H43.702C46.6683 33.8411 49.5408 34.8771 51.8269 36.7673C54.113 38.6575 55.6703 41.284 56.232 44.1967C56.3838 44.9978 56.4608 45.8113 56.4621 46.6267C56.4594 48.6017 55.9982 50.5491 55.115 52.3157C54.2317 54.0822 52.9504 55.6195 51.372 56.8067C53.6188 56.7726 55.7617 55.8553 57.3374 54.2534C58.9131 52.6515 59.7949 50.4937 59.792 48.2467V16.1567L59.722 14.1567Z" fill="#FFC834"/>
<path d="M36.972 14.1567C37.0149 13.033 36.8355 11.912 36.444 10.8578C36.0525 9.80367 35.4567 8.83721 34.6907 8.01393C33.9247 7.19065 33.0037 6.52674 31.9805 6.06032C30.9573 5.59389 29.8521 5.33413 28.7282 5.29594C27.6044 5.25776 26.4841 5.4419 25.4316 5.8378C24.3791 6.23369 23.4151 6.83356 22.5951 7.60295C21.775 8.37234 21.1149 9.29612 20.6528 10.3213C20.1907 11.3464 19.9355 12.4527 19.902 13.5767C19.892 13.7699 19.892 13.9635 19.902 14.1567V38.1567L37.042 34.8567V16.7367C36.9936 16.5472 36.9701 16.3523 36.972 16.1567V14.1567Z" fill="#FFC834"/>
<path d="M35.872 123.997C35.882 123.867 35.882 123.737 35.872 123.607C42.6025 125.795 49.6452 126.869 56.7219 126.787H57.552C57.9253 126.818 58.3012 126.774 58.6571 126.657C59.013 126.54 59.3416 126.352 59.6234 126.105C59.9053 125.858 60.1344 125.557 60.2974 125.22C60.4603 124.883 60.5537 124.516 60.5718 124.142C60.5899 123.767 60.5325 123.393 60.403 123.042C60.2734 122.69 60.0744 122.368 59.8178 122.095C59.5611 121.822 59.2522 121.604 58.9093 121.453C58.5664 121.302 58.1966 121.222 57.822 121.217C57.7122 121.207 57.6017 121.207 57.492 121.217H54.2219C43.4719 120.847 35.222 118.157 28.762 114.317C23.9688 111.448 19.7642 107.695 16.372 103.257C12.3122 97.8883 9.26257 91.8264 7.37197 85.3667C6.73197 83.2067 6.31198 81.3667 6.03198 79.8967C5.98198 79.6367 5.94197 79.3767 5.90197 79.1467C5.76197 78.3967 5.68198 77.8067 5.63198 77.4167C5.60545 77.2713 5.58873 77.1243 5.58196 76.9767V76.9267C5.55412 76.1868 5.23346 75.4882 4.69055 74.9846C4.14763 74.4811 3.42693 74.2139 2.68697 74.2417C1.94702 74.2696 1.24843 74.5902 0.744897 75.1331C0.241362 75.6761 -0.0258704 76.3968 0.00197728 77.1367V77.4267C0.299487 80.0624 0.804395 82.6704 1.51199 85.2267C2.64024 89.4694 4.1948 93.587 6.15197 97.5167C8.01244 101.161 10.2658 104.592 12.872 107.747C17.4453 113.399 23.2134 117.968 29.762 121.127C30.282 121.377 30.812 121.617 31.362 121.857C31.0457 122.116 30.7916 122.443 30.6186 122.813C30.4455 123.183 30.3578 123.588 30.362 123.997V149.177H35.872V123.997Z" fill="#257CC0"/>
<path d="M103.952 117.457C104.824 116.455 105.62 115.388 106.332 114.267C108.704 110.413 110.152 106.063 110.562 101.557C110.683 101.237 110.751 100.899 110.762 100.557V16.1567C110.772 16.0436 110.772 15.9298 110.762 15.8167V14.1567C110.767 11.3635 109.943 8.63168 108.394 6.30723C106.845 3.98278 104.642 2.17032 102.062 1.09944C99.482 0.0285522 96.6425 -0.252574 93.9028 0.291681C91.1632 0.835935 88.6466 2.18107 86.6721 4.1567C86.1809 4.65948 85.7233 5.19397 85.3021 5.75671C83.0802 2.74086 79.7516 0.730716 76.0481 0.168161C72.3447 -0.394394 68.5694 0.536683 65.5521 2.75671C64.9902 3.17501 64.4589 3.63284 63.9621 4.1267C63.4625 4.62451 63.0012 5.15938 62.5821 5.72671C61.3753 4.09412 59.8306 2.74096 58.0534 1.75952C56.2762 0.778071 54.3083 0.191422 52.2837 0.0395597C50.2592 -0.112303 48.2257 0.174197 46.322 0.879525C44.4182 1.58485 42.689 2.69242 41.2521 4.1267C40.7406 4.62984 40.2723 5.1751 39.8521 5.75671C39.4294 5.17712 38.9612 4.63206 38.4521 4.1267C36.4757 2.15596 33.9596 0.815171 31.2215 0.273675C28.4835 -0.26782 25.6464 0.0142803 23.0687 1.08434C20.4909 2.15441 18.288 3.96443 16.7384 6.28578C15.1888 8.60712 14.3618 11.3356 14.3621 14.1267V39.1767L11.6721 39.6967C9.68709 40.0724 7.8214 40.9195 6.2321 42.1667C4.75073 43.3282 3.54516 44.8036 2.7021 46.4867C0.993628 49.0666 0.0824246 52.0924 0.0821086 55.1867V69.2467C0.0453187 69.9813 0.300122 70.7007 0.791062 71.2485C1.282 71.7962 1.96938 72.1279 2.70363 72.1714C3.43788 72.2149 4.1596 71.9667 4.71178 71.4808C5.26396 70.9948 5.60191 70.3105 5.65212 69.5767C5.66211 69.4669 5.66211 69.3565 5.65212 69.2467V55.2167C5.65429 53.1662 6.27079 51.1635 7.4221 49.4667C7.49826 49.3592 7.56518 49.2455 7.62212 49.1267C8.10827 48.1203 8.82233 47.2411 9.70763 46.5589C10.5929 45.8767 11.6251 45.4103 12.7221 45.1967L42.3221 39.4967C42.7768 39.4084 43.239 39.3649 43.7021 39.3667C45.0632 39.3684 46.3958 39.7564 47.5451 40.4856C48.6944 41.2148 49.6131 42.2552 50.1944 43.4859C50.7757 44.7166 50.9957 46.087 50.8289 47.4378C50.6621 48.7887 50.1153 50.0644 49.2521 51.1167C48.1943 52.4252 46.7056 53.3149 45.0521 53.6267L28.3621 56.8467C27.7266 56.9677 27.1532 57.3066 26.7407 57.8049C26.3282 58.3032 26.1023 58.9298 26.1021 59.5767V69.2767C26.0653 70.0113 26.3201 70.7307 26.8111 71.2785C27.302 71.8262 27.9894 72.1579 28.7236 72.2014C29.4579 72.2449 30.1796 71.9967 30.7318 71.5107C31.2839 71.0248 31.6219 70.3405 31.6721 69.6067C31.6821 69.4969 31.6821 69.3865 31.6721 69.2767V61.9267L43.0021 59.7367C45.4923 61.5289 48.4984 62.4612 51.5657 62.3926C54.633 62.3241 57.5945 61.2583 60.0021 59.3567C60.3961 61.9443 61.5001 64.372 63.1913 66.3697C64.8826 68.3674 67.0948 69.8568 69.5819 70.6724C72.069 71.4879 74.7336 71.5977 77.2794 70.9894C79.8252 70.3811 82.1524 69.0786 84.0021 67.2267C84.4535 66.7751 84.8745 66.294 85.2621 65.7867C85.7014 66.3895 86.1862 66.9578 86.7121 67.4867C89.133 69.9053 92.3484 71.3647 95.7627 71.5945C99.177 71.8243 102.559 70.8091 105.282 68.7367V97.6367C105.284 98.9166 105.21 100.195 105.062 101.467C104.743 104.523 103.832 107.488 102.382 110.197C101.208 112.352 99.6571 114.279 97.8021 115.887C95.6044 117.785 93.0847 119.275 90.3621 120.287H90.2521C89.4435 120.588 88.6189 120.846 87.7821 121.057L87.0921 121.217H86.8721C86.5014 121.256 86.1423 121.368 85.8158 121.548C85.4894 121.728 85.2024 121.972 84.9716 122.264C84.7408 122.557 84.5711 122.893 84.4723 123.252C84.3736 123.612 84.3478 123.987 84.3966 124.357C84.4454 124.726 84.5677 125.082 84.7563 125.404C84.945 125.725 85.1961 126.005 85.4949 126.228C85.7937 126.451 86.1341 126.612 86.496 126.701C86.8579 126.79 87.234 126.805 87.6021 126.747H87.7421C89.0036 126.513 90.2443 126.179 91.4521 125.747C93.4403 125.067 95.3536 124.186 97.1621 123.117C97.5821 122.87 98.0121 122.6 98.4521 122.307V149.157H104.022L103.952 117.457ZM37.0421 34.8267L19.8721 38.1267V14.1267C19.8292 13.003 20.0087 11.8819 20.4002 10.8278C20.7917 9.77365 21.3875 8.80721 22.1535 7.98393C22.9194 7.16064 23.8404 6.49674 24.8636 6.03031C25.8868 5.56389 26.992 5.30412 28.1159 5.26594C29.2397 5.22775 30.3601 5.4119 31.4126 5.80779C32.4651 6.20369 33.429 6.80355 34.2491 7.57295C35.0691 8.34234 35.7292 9.26611 36.1914 10.2913C36.6535 11.3164 36.9086 12.4227 36.9421 13.5467C36.9521 13.7399 36.9521 13.9335 36.9421 14.1267V16.1267C36.9402 16.3223 36.9637 16.5172 37.0121 16.7067L37.0421 34.8267ZM59.7521 48.1967C59.7576 50.4445 58.8767 52.6038 57.3004 54.2062C55.7241 55.8087 53.5797 56.7251 51.3321 56.7567C52.9105 55.5695 54.1917 54.0322 55.075 52.2657C55.9583 50.4992 56.4194 48.5517 56.4221 46.5767C56.4209 45.7613 56.3439 44.9478 56.1921 44.1467C55.6304 41.2341 54.073 38.6075 51.7869 36.7173C49.5008 34.8271 46.6284 33.7911 43.6621 33.7867H42.6121V16.5067C42.6223 16.3903 42.6223 16.2731 42.6121 16.1567V14.1567C42.5339 11.8931 43.3581 9.6911 44.9034 8.03515C46.4487 6.3792 48.5885 5.40494 50.8521 5.3267C53.1157 5.24846 55.3177 6.07266 56.9737 7.61796C58.6296 9.16326 59.6039 11.3031 59.6821 13.5667C59.6921 13.7632 59.6921 13.9602 59.6821 14.1567V16.5067L59.7521 48.1967ZM82.4721 57.1967C82.4721 59.4696 81.5692 61.6494 79.962 63.2566C78.3548 64.8638 76.1751 65.7667 73.9021 65.7667C71.6292 65.7667 69.4494 64.8638 67.8422 63.2566C66.235 61.6494 65.3321 59.4696 65.3321 57.1967V14.1967C65.2893 13.073 65.4687 11.9519 65.8602 10.8978C66.2516 9.84366 66.8475 8.87722 67.6134 8.05393C68.3794 7.23065 69.3004 6.56675 70.3236 6.10032C71.3468 5.63389 72.4521 5.37413 73.5759 5.33595C74.6998 5.29776 75.82 5.4819 76.8725 5.8778C77.925 6.2737 78.889 6.87356 79.7091 7.64295C80.5292 8.41235 81.1892 9.33612 81.6514 10.3613C82.1135 11.3864 82.3687 12.4927 82.4021 13.6167C82.4121 13.8099 82.4121 14.0035 82.4021 14.1967V16.1967C82.3921 16.3098 82.3921 16.4236 82.4021 16.5367L82.4721 57.1967ZM102.672 63.5167C101.474 64.7153 99.9465 65.5315 98.2841 65.8622C96.6217 66.1929 94.8985 66.0232 93.3325 65.3745C91.7665 64.7259 90.4281 63.6274 89.4864 62.2181C88.5447 60.8087 88.0421 59.1517 88.0421 57.4567V16.4567C88.0521 16.3436 88.0521 16.2298 88.0421 16.1167V14.1167C87.9992 12.993 88.1787 11.8719 88.5702 10.8178C88.9617 9.76366 89.5575 8.79721 90.3235 7.97393C91.0894 7.15065 92.0104 6.48674 93.0336 6.02032C94.0568 5.55389 95.162 5.29413 96.2859 5.25594C97.4097 5.21776 98.5301 5.4019 99.5826 5.7978C100.635 6.1937 101.599 6.79356 102.419 7.56295C103.239 8.33234 103.899 9.25612 104.361 10.2813C104.824 11.3064 105.079 12.4127 105.112 13.5367C105.122 13.7299 105.122 13.9235 105.112 14.1167V57.4467C105.115 59.6889 104.239 61.8429 102.672 63.4467V63.5167Z" fill="#257CC0"/>
<path d="M37.872 76.7367C37.942 76.7367 39.042 76.6167 40.792 76.6167H41.382C43.635 76.6432 45.8822 76.8505 48.102 77.2367C50.366 77.6309 52.584 78.2541 54.722 79.0967C58.1996 80.4101 61.2934 82.5724 63.722 85.3867C65.0528 86.9687 66.1322 88.7462 66.922 90.6567C67.5521 92.1803 68.0343 93.7609 68.362 95.3767C68.522 96.1867 68.6621 97.0267 68.7721 97.9167C68.8636 98.6385 69.2334 99.2961 69.8028 99.7491C70.3722 100.202 71.096 100.415 71.82 100.342C72.5439 100.269 73.2107 99.9157 73.6781 99.3581C74.1455 98.8004 74.3766 98.0823 74.322 97.3567C74.322 97.3567 74.322 97.2867 74.322 97.2567C73.8236 92.1592 71.9998 87.281 69.032 83.1067C67.1181 80.5281 64.7451 78.3246 62.032 76.6067C58.4453 74.3612 54.4758 72.7951 50.322 71.9867C47.1895 71.3456 43.9995 71.0272 40.802 71.0367C39.6236 71.0265 38.4454 71.0766 37.272 71.1867C36.9063 71.209 36.5486 71.3032 36.2192 71.4637C35.8899 71.6243 35.5954 71.8482 35.3525 72.1226C35.1097 72.397 34.9233 72.7166 34.804 73.063C34.6846 73.4094 34.6347 73.776 34.657 74.1417C34.6794 74.5074 34.7735 74.8652 34.9341 75.1945C35.0947 75.5239 35.3186 75.8184 35.593 76.0612C35.8673 76.304 36.1869 76.4904 36.5333 76.6098C36.8798 76.7291 37.2463 76.779 37.612 76.7567H37.882L37.872 76.7367Z" fill="#257CC0"/>
</svg>
