<svg width="157" height="157" viewBox="0 0 157 157" fill="none" xmlns="http://www.w3.org/2000/svg">
<path d="M10.7396 37.82L77.4596 5.71002L147.53 37.82L146.69 40.61L78.8496 73.55L6.82959 40.05L10.7396 37.82Z" fill="#FFC834"/>
<path d="M108.46 117.9V65.37C107.265 65.6809 106.087 66.0514 104.93 66.48C98.1496 69.61 91.2996 72.61 84.6496 76.01C82.8885 77.0134 80.9019 77.5542 78.8752 77.5822C76.8485 77.6102 74.8478 77.1244 73.0596 76.1701C60.5296 70.1001 47.8696 64.29 35.2596 58.39C33.6196 57.63 31.9495 56.94 29.5695 55.91V62.68C29.5695 68.97 29.7395 75.26 29.5695 81.54C29.3795 87.32 31.8396 91.66 36.0296 95.3C40.4951 98.9799 45.6242 101.77 51.1396 103.52C60.8796 106.94 70.9595 108.1 81.2095 108.18C85.1195 108.18 89.0296 108.11 92.9296 108.24C96.3896 108.35 98.0996 109.88 98.1196 112.54C98.1738 113.764 97.7397 114.959 96.9127 115.863C96.0857 116.767 94.9335 117.306 93.7095 117.36H93.2796C76.4196 117.8 59.6095 117.74 43.6995 110.85C38.0282 108.525 32.8295 105.184 28.3596 100.99C22.8896 95.65 19.8396 89.33 19.9996 81.48C20.1896 72.14 19.9996 62.79 19.9996 53.48C19.9501 52.7242 19.8499 51.9725 19.6995 51.23C15.2995 49.16 10.8596 47.08 6.41963 44.98C5.16157 44.4736 3.95028 43.8579 2.79964 43.14C-0.340362 40.9 -0.270366 37.34 2.91963 35.2C3.93476 34.5766 4.99419 34.0284 6.08956 33.56C28.8496 22.91 51.6396 12.33 74.3596 1.56003C77.8596 -0.0999662 80.7896 0.470042 84.0296 1.99004C102.93 10.9 121.86 19.71 140.78 28.56C144.48 30.28 148.16 32.03 151.86 33.73C154.37 34.89 157.12 35.97 156.92 39.34C156.75 42.28 154.42 43.46 151.92 44.51C148.17 46.11 144.6 48.12 140.83 49.66C138.08 50.78 137 52.41 137.07 55.43C137.25 63.58 136.73 71.7601 137.23 79.8901C137.92 90.9601 132.9 98.7301 124.41 104.89C123.768 105.45 123.047 105.912 122.27 106.26C117.6 107.85 117.27 111.46 117.55 115.61C117.522 116.444 117.73 117.269 118.152 117.989C118.573 118.709 119.189 119.295 119.93 119.68C125.52 122.83 127.77 127.79 127.6 134.11C127.46 139.54 127.6 144.99 127.6 150.42C127.6 154.92 125.86 156.64 121.48 156.68C116.04 156.72 110.603 156.677 105.17 156.55C99.6496 156.43 98.4996 155.14 98.4896 149.4C98.4896 144.47 98.6296 139.54 98.4896 134.62C98.2496 127.69 100.69 122.37 107.01 119.12C107.526 118.755 108.011 118.347 108.46 117.9V117.9ZM101.3 57.59C95.1596 54.06 90.2396 51.11 85.1796 48.43C84.1796 47.88 82.5496 48.19 81.2696 48.43C75.2696 49.51 70.5796 46.67 69.2696 41.08C68.7374 38.6317 69.1897 36.0723 70.5289 33.9547C71.868 31.8371 73.9866 30.3313 76.4267 29.7627C78.8668 29.194 81.4327 29.6081 83.57 30.9155C85.7074 32.2229 87.2445 34.3187 87.8496 36.75C88.0382 37.5611 88.3969 38.3228 88.9021 38.9848C89.4072 39.6468 90.0472 40.1939 90.7796 40.59C96.9796 44.12 103.18 47.65 109.35 51.23C110.109 51.7632 111 52.0777 111.926 52.1394C112.851 52.2011 113.776 52.0076 114.6 51.58C122.69 47.63 130.84 43.82 138.96 39.93C139.17 39.83 139.21 39.37 139.43 38.83C138.979 38.4163 138.486 38.051 137.96 37.74C119.19 28.96 100.39 20.25 81.6596 11.4C80.6864 10.9123 79.6095 10.6675 78.5211 10.6867C77.4326 10.7058 76.3651 10.9883 75.4096 11.51C56.9496 20.1767 38.4863 28.8134 20.0196 37.42C19.0801 37.9997 18.1993 38.6696 17.3896 39.42C19.5496 40.52 21.1696 41.42 22.8396 42.18C28.2096 44.72 33.6096 47.18 38.9896 49.73C50.9896 55.35 62.9896 61.02 74.9896 66.53C76.5696 67.25 78.8296 67.92 80.2396 67.33C86.9996 64.49 93.5196 61.24 101.3 57.59V57.59ZM117.81 97.83C123.87 93.47 127.89 89.2001 127.95 82.3901C128.01 74.5901 127.95 66.79 127.95 58.98C127.843 57.969 127.666 56.9665 127.42 55.98L117.8 60.58L117.81 97.83ZM118 147C118 141.79 118.14 137.22 118 132.66C117.87 129.45 116.15 127.74 113.45 127.5C112.198 127.36 110.941 127.722 109.957 128.508C108.972 129.294 108.34 130.438 108.2 131.69C108.195 131.753 108.195 131.817 108.2 131.88C107.553 136.896 107.486 141.969 108 147H118Z" fill="#257CC0"/>
</svg>
